<?xml version="1.0" encoding="UTF-8" standalone="no"?>
<!-- Created with Inkscape (http://www.inkscape.org/) -->

<svg
   xmlns:dc="http://purl.org/dc/elements/1.1/"
   xmlns:cc="http://creativecommons.org/ns#"
   xmlns:rdf="http://www.w3.org/1999/02/22-rdf-syntax-ns#"
   xmlns:svg="http://www.w3.org/2000/svg"
   xmlns="http://www.w3.org/2000/svg"
   xmlns:xlink="http://www.w3.org/1999/xlink"
   xmlns:sodipodi="http://sodipodi.sourceforge.net/DTD/sodipodi-0.dtd"
   xmlns:inkscape="http://www.inkscape.org/namespaces/inkscape"
   width="100"
   height="50"
   id="svg2"
   version="1.1"
   inkscape:version="0.47 r22583"
   sodipodi:docname="audience.svg">
  <defs
     id="defs4">
    <linearGradient
       id="linearGradient3771">
      <stop
         style="stop-color:#ffffff;stop-opacity:1;"
         offset="0"
         id="stop3773" />
      <stop
         id="stop3779"
         offset="0.70909089"
         style="stop-color:#ffffff;stop-opacity:1;" />
      <stop
         style="stop-color:#ffffff;stop-opacity:0;"
         offset="1"
         id="stop3775" />
    </linearGradient>
    <inkscape:perspective
       sodipodi:type="inkscape:persp3d"
       inkscape:vp_x="0 : 526.18109 : 1"
       inkscape:vp_y="0 : 1000 : 0"
       inkscape:vp_z="744.09448 : 526.18109 : 1"
       inkscape:persp3d-origin="372.04724 : 350.78739 : 1"
       id="perspective10" />
    <inkscape:perspective
       id="perspective3607"
       inkscape:persp3d-origin="0.5 : 0.33333333 : 1"
       inkscape:vp_z="1 : 0.5 : 1"
       inkscape:vp_y="0 : 1000 : 0"
       inkscape:vp_x="0 : 0.5 : 1"
       sodipodi:type="inkscape:persp3d" />
    <inkscape:perspective
       id="perspective3663"
       inkscape:persp3d-origin="0.5 : 0.33333333 : 1"
       inkscape:vp_z="1 : 0.5 : 1"
       inkscape:vp_y="0 : 1000 : 0"
       inkscape:vp_x="0 : 0.5 : 1"
       sodipodi:type="inkscape:persp3d" />
    <inkscape:perspective
       id="perspective3663-6"
       inkscape:persp3d-origin="0.5 : 0.33333333 : 1"
       inkscape:vp_z="1 : 0.5 : 1"
       inkscape:vp_y="0 : 1000 : 0"
       inkscape:vp_x="0 : 0.5 : 1"
       sodipodi:type="inkscape:persp3d" />
    <inkscape:perspective
       id="perspective3694"
       inkscape:persp3d-origin="0.5 : 0.33333333 : 1"
       inkscape:vp_z="1 : 0.5 : 1"
       inkscape:vp_y="0 : 1000 : 0"
       inkscape:vp_x="0 : 0.5 : 1"
       sodipodi:type="inkscape:persp3d" />
    <inkscape:perspective
       id="perspective3739"
       inkscape:persp3d-origin="0.5 : 0.33333333 : 1"
       inkscape:vp_z="1 : 0.5 : 1"
       inkscape:vp_y="0 : 1000 : 0"
       inkscape:vp_x="0 : 0.5 : 1"
       sodipodi:type="inkscape:persp3d" />
    <inkscape:perspective
       id="perspective3739-3"
       inkscape:persp3d-origin="0.5 : 0.33333333 : 1"
       inkscape:vp_z="1 : 0.5 : 1"
       inkscape:vp_y="0 : 1000 : 0"
       inkscape:vp_x="0 : 0.5 : 1"
       sodipodi:type="inkscape:persp3d" />
    <inkscape:perspective
       id="perspective3739-4"
       inkscape:persp3d-origin="0.5 : 0.33333333 : 1"
       inkscape:vp_z="1 : 0.5 : 1"
       inkscape:vp_y="0 : 1000 : 0"
       inkscape:vp_x="0 : 0.5 : 1"
       sodipodi:type="inkscape:persp3d" />
    <linearGradient
       inkscape:collect="always"
       xlink:href="#linearGradient3771"
       id="linearGradient3783"
       x1="16.413704"
       y1="1020.4525"
       x2="16.413704"
       y2="1036.5671"
       gradientUnits="userSpaceOnUse"
       gradientTransform="matrix(0.87160004,0,0,0.93082875,0.69381575,72.495721)" />
    <inkscape:perspective
       id="perspective3797"
       inkscape:persp3d-origin="0.5 : 0.33333333 : 1"
       inkscape:vp_z="1 : 0.5 : 1"
       inkscape:vp_y="0 : 1000 : 0"
       inkscape:vp_x="0 : 0.5 : 1"
       sodipodi:type="inkscape:persp3d" />
    <linearGradient
       inkscape:collect="always"
       xlink:href="#linearGradient3771-9"
       id="linearGradient3783-3"
       x1="16.413704"
       y1="1020.4525"
       x2="16.413704"
       y2="1036.5671"
       gradientUnits="userSpaceOnUse"
       gradientTransform="matrix(0.87160004,0,0,0.93082875,0.69381575,72.495721)" />
    <linearGradient
       id="linearGradient3771-9">
      <stop
         style="stop-color:#000000;stop-opacity:1;"
         offset="0"
         id="stop3773-6" />
      <stop
         id="stop3779-2"
         offset="0.70909089"
         style="stop-color:#000000;stop-opacity:1;" />
      <stop
         style="stop-color:#000000;stop-opacity:0;"
         offset="1"
         id="stop3775-7" />
    </linearGradient>
    <linearGradient
       y2="1036.5671"
       x2="16.413704"
       y1="1020.4525"
       x1="16.413704"
       gradientTransform="matrix(0.87160004,0,0,0.93082875,39.619163,71.58247)"
       gradientUnits="userSpaceOnUse"
       id="linearGradient3807"
       xlink:href="#linearGradient3771"
       inkscape:collect="always" />
    <inkscape:perspective
       id="perspective3797-0"
       inkscape:persp3d-origin="0.5 : 0.33333333 : 1"
       inkscape:vp_z="1 : 0.5 : 1"
       inkscape:vp_y="0 : 1000 : 0"
       inkscape:vp_x="0 : 0.5 : 1"
       sodipodi:type="inkscape:persp3d" />
    <linearGradient
       inkscape:collect="always"
       xlink:href="#linearGradient3771-4"
       id="linearGradient3783-2"
       x1="16.413704"
       y1="1020.4525"
       x2="16.413704"
       y2="1036.5671"
       gradientUnits="userSpaceOnUse"
       gradientTransform="matrix(0.87160004,0,0,0.93082875,0.69381575,72.495721)" />
    <linearGradient
       id="linearGradient3771-4">
      <stop
         style="stop-color:#000000;stop-opacity:1;"
         offset="0"
         id="stop3773-5" />
      <stop
         id="stop3779-7"
         offset="0.70909089"
         style="stop-color:#000000;stop-opacity:1;" />
      <stop
         style="stop-color:#000000;stop-opacity:0;"
         offset="1"
         id="stop3775-8" />
    </linearGradient>
    <linearGradient
       y2="1036.5671"
       x2="16.413704"
       y1="1020.4525"
       x1="16.413704"
       gradientTransform="matrix(0.87160004,0,0,0.93082875,78.700806,73.379553)"
       gradientUnits="userSpaceOnUse"
       id="linearGradient3807-7"
       xlink:href="#linearGradient3771"
       inkscape:collect="always" />
    <inkscape:perspective
       id="perspective2916"
       inkscape:persp3d-origin="371.42502 : 81.204168 : 1"
       inkscape:vp_z="742.85004 : 121.80625 : 1"
       inkscape:vp_y="0 : 1000 : 0"
       inkscape:vp_x="0 : 121.80625 : 1"
       sodipodi:type="inkscape:persp3d" />
    <inkscape:perspective
       id="perspective78"
       inkscape:persp3d-origin="360 : 240 : 1"
       inkscape:vp_z="720 : 360 : 1"
       inkscape:vp_y="0 : 1000 : 0"
       inkscape:vp_x="0 : 360 : 1"
       sodipodi:type="inkscape:persp3d" />
    <inkscape:perspective
       id="perspective4088"
       inkscape:persp3d-origin="0.5 : 0.33333333 : 1"
       inkscape:vp_z="1 : 0.5 : 1"
       inkscape:vp_y="0 : 1000 : 0"
       inkscape:vp_x="0 : 0.5 : 1"
       sodipodi:type="inkscape:persp3d" />
  </defs>
  <sodipodi:namedview
     id="base"
     pagecolor="#25236f"
     bordercolor="#666666"
     borderopacity="1.0"
     inkscape:pageopacity="1"
     inkscape:pageshadow="2"
     inkscape:zoom="2.56"
     inkscape:cx="43.82716"
     inkscape:cy="18.170413"
     inkscape:document-units="px"
     inkscape:current-layer="layer1"
     showgrid="true"
     inkscape:window-width="766"
     inkscape:window-height="746"
     inkscape:window-x="0"
     inkscape:window-y="20"
     inkscape:window-maximized="0"
     inkscape:snap-grids="false">
    <inkscape:grid
       type="xygrid"
       id="grid2816"
       empspacing="5"
       visible="true"
       enabled="true"
       snapvisiblegridlinesonly="true" />
  </sodipodi:namedview>
  <metadata
     id="metadata7">
    <rdf:RDF>
      <cc:Work
         rdf:about="">
        <dc:format>image/svg+xml</dc:format>
        <dc:type
           rdf:resource="http://purl.org/dc/dcmitype/StillImage" />
        <dc:title />
      </cc:Work>
    </rdf:RDF>
  </metadata>
  <g
     inkscape:label="Layer 1"
     inkscape:groupmode="layer"
     id="layer1"
     transform="translate(0,-1002.3622)">
    <rect
       style="fill:#ffffff;fill-opacity:0;fill-rule:evenodd;stroke:#ffffff;stroke-opacity:1;stroke-linejoin:round;stroke-width:2;stroke-miterlimit:4;stroke-dasharray:none;stroke-linecap:butt"
       id="rect2818"
       width="100"
       height="50"
       x="0"
       y="0"
       transform="translate(0,1002.3622)" />
    <path
       style="fill:url(#linearGradient3783);fill-opacity:1;stroke:#ffffff;stroke-width:0.90072775000000005px;stroke-linecap:butt;stroke-linejoin:miter;stroke-opacity:1"
       d="m 5.4035513,1047.3622 0.7703925,-14.4326 C 6.2839998,1027.9931 15,1028.1579 15,1028.1579 c 0.711946,-4.6664 -2.817214,-3.5491 -2.817214,-9.0732 -0.110056,-6.582 5.30426,-6.7225 5.30426,-6.7225 0,0 6.228954,-0.6349 6.404822,6.84 -0.110057,4.7014 -3.80772,4.1368 -2.817215,9.0732 0,0 8.605945,0.071 9.04617,4.5367 l 0.660336,14.1975"
       id="path3729-9"
       sodipodi:nodetypes="ccccccccc" />
    <path
       style="fill:#ffffff;stroke:#ffffff;stroke-width:1px;stroke-linecap:butt;stroke-linejoin:miter;stroke-opacity:1;fill-opacity:1"
       d="M 24.116117,50.505076 25,35 c 0.126269,-5.303301 10.126269,-5.126269 10.126269,-5.126269 0.816826,-5.013144 -3.232233,-3.812816 -3.232233,-9.747462 -0.126269,-7.071068 6.085659,-7.22208 6.085659,-7.22208 0,0 7.146574,-0.682109 7.348349,7.348349 -0.126269,5.050763 -4.368655,4.444161 -3.232233,9.747462 0,0 9.873732,0.07551 10.378808,4.873731 l 0.757614,15.252538"
       id="path3729"
       transform="translate(0,1002.3622)"
       sodipodi:nodetypes="ccccccccc" />
    <path
       style="fill:#ffffff;fill-opacity:1;stroke:#ffffff;stroke-width:1px;stroke-linecap:butt;stroke-linejoin:miter;stroke-opacity:1"
       d="m 62.020306,1052.8673 0.883883,-15.5051 c 0.126269,-5.3033 10.126269,-5.1263 10.126269,-5.1263 0.816826,-5.0131 -3.232233,-3.8128 -3.232233,-9.7474 -0.126269,-7.0711 6.085659,-7.2221 6.085659,-7.2221 0,0 7.146574,-0.6821 7.348349,7.3483 -0.126269,5.0508 -4.368655,4.4442 -3.232233,9.7475 0,0 9.873732,0.076 10.378808,4.8737 l 0.757614,15.2526"
       id="path3729-3"
       sodipodi:nodetypes="ccccccccc" />
    <path
       style="fill:#ffffff;fill-opacity:1;stroke:#ffffff;stroke-width:1px;stroke-linecap:butt;stroke-linejoin:miter;stroke-opacity:1"
       d="m 0,1052.3622 c 1.8031201,-8.2127 0,-25 0.883884,-37.0958 0,0 7.146574,-0.6821 7.348349,7.3483 -0.126269,5.0508 -4.368655,4.4442 -3.232233,9.7475 0,0 9.873732,0.076 10.378808,4.8737 l 0.757614,15.2526"
       id="path3729-0"
       sodipodi:nodetypes="cccccc" />
    <path
       style="fill:url(#linearGradient3807);fill-opacity:1.0;stroke:#ffffff;stroke-width:0.90072775000000005px;stroke-linecap:butt;stroke-linejoin:miter;stroke-opacity:1"
       d="m 44.328898,1046.449 0.770393,-14.4326 c 0.110056,-4.9365 8.826056,-4.7717 8.826056,-4.7717 0.711946,-4.6664 -2.817214,-3.5491 -2.817214,-9.0732 -0.110056,-6.582 5.30426,-6.7225 5.30426,-6.7225 0,0 6.228954,-0.6349 6.404822,6.84 -0.110057,4.7014 -3.80772,4.1368 -2.817215,9.0732 0,0 8.605945,0.071 9.04617,4.5367 l 0.660336,14.1975"
       id="path3729-9-5"
       sodipodi:nodetypes="ccccccccc" />
    <path
       style="fill:url(#linearGradient3807-7);fill-opacity:1.0;stroke:#ffffff;stroke-width:0.90072775000000005px;stroke-linecap:butt;stroke-linejoin:miter;stroke-opacity:1"
       d="m 83.410541,1048.2461 0.770393,-14.4326 c 0.110056,-4.9365 8.826056,-4.7717 8.826056,-4.7717 0.711946,-4.6664 -2.817214,-3.5491 -2.817214,-9.0732 -0.110056,-6.582 5.30426,-6.7225 5.30426,-6.7225 7.592134,1.3055 3.36273,10.4299 3.587607,15.9132 L 100,1047.3622"
       id="path3729-9-2"
       sodipodi:nodetypes="ccccccc" />
    <g
       id="g2919"
       transform="matrix(0.02202415,0,0,0.02127656,68.323516,1038.9189)">
      <g
         id="layer1-5" />
      <path
         id="path1103"
         d="M 5,123.6125 80,4.8625031 c 0,0 68.75,0 68.75,0 0,0 -68.75,118.7499969 -68.75,118.7499969 0,0 68.75,116.25 68.75,116.25 l -75,0 L 5,123.6125 z m 87.5,0 68.75,-118.7499969 c 0,0 75,0 75,0 0,0 -68.75,118.7499969 -68.75,118.7499969 l 68.75,116.25 -75,0 -68.75,-116.25 z m 87.5,0 68.75,-118.7499969 c 0,0 75,0 75,0 0,0 -67.5,118.7499969 -67.5,118.7499969 l 67.5,116.25 -75,0 L 180,123.6125 z M 423.75,4.8625031 c 0,0 68.75,0 68.75,0 L 405,239.8625 l -68.75,0 87.5,-234.9999969 z m 150,118.7499969 c 0,0 -68.75,-118.7499969 -68.75,-118.7499969 0,0 75,0 75,0 0,0 68.75,118.7499969 68.75,118.7499969 l -68.75,116.25 -75,0 c 0,0 68.75,-116.25 68.75,-116.25 z m 18.75,116.25 c 0,0 68.75,-116.25 68.75,-116.25 0,0 -68.75,-118.7499969 -68.75,-118.7499969 l 75,0 68.75,118.7499969 -68.75,116.25 c 0,0 -75,0 -75,0 z" />
    </g>
    <g
       id="g3169"
       transform="matrix(0.01,0,0,0.0106052,30,1032.3622)">
      <g
         style="font-style:normal;font-variant:normal;font-weight:normal;font-stretch:normal;letter-spacing:normal;word-spacing:normal;text-anchor:start;fill:none;stroke:#000000;stroke-width:1;stroke-linecap:butt;stroke-linejoin:miter;stroke-miterlimit:10.43299961;stroke-opacity:1;stroke-dasharray:none;stroke-dashoffset:0"
         word-spacing="normal"
         letter-spacing="normal"
         font-size-adjust="none"
         font-stretch="normal"
         font-weight="normal"
         font-variant="normal"
         font-style="normal"
         fill-rule="even-odd"
         stroke-miterlimit="10.433"
         xml:space="preserve"
         transform="matrix(0.0017361,0,0,-0.0017361,-2.34391,4.6038)"
         id="content">
<path
   style="fill:#000000;stroke-width:0pt;stroke-linecap:square"
   id="path9"
   d="m 1624.2,2528.4 0.5,0 0.4,0 0.5,0 0.5,0 0.9,0 0.9,0 0.9,0 0.4,0 0.5,0 0.4,0 0.5,0 0.5,0 0.5,0 c 28.6,-2.2 48.8,-18.6 67.4,-39.4 4.7,-6.3 8.4,-11.6 12.2,-18.5 1.5,-2.6 2.6,-5.3 4.2,-8.5 3.2,-6.9 5.3,-14.3 7.4,-22.3 0,-0.5 0,-1.6 0.6,-2.1 1,0 0.5,1 1.6,1.6 0,2.7 1,4.8 1,7.4 1.1,2.1 1.1,3.8 1.6,5.9 3.7,19.6 5.3,39.8 0,59.4 1.6,2.1 4.8,0.5 7.5,1 12.1,0.5 23.8,0 36,0.5 12.2,-0.5 24.4,-0.5 36.1,0 0,-15.3 -1.1,-31.2 -3.7,-46.6 -1.6,-8 -3.2,-14.8 -5.3,-22.3 -4.3,-13.8 -9.6,-27 -14.9,-39.3 -2.1,-3.6 -3.7,-6.9 -5.8,-10.6 -12.2,-22.3 -28.1,-44.5 -48.8,-59.9 -10.6,-8.5 -23.9,-13.3 -36.1,-20.2 -1.1,-3.7 -1.1,-7.4 -3.7,-9.6 -3.2,-1.5 -7.5,-1.5 -11.2,-1 -1.5,1 -3.1,1.6 -4.7,3.2 -1.7,-1.6 -2.7,-3.7 -5.3,-4.2 -4.9,-0.6 -10.7,-1.1 -13.9,2.6 -0.5,0 -1,0 -1,-0.6 -3.7,-4.2 -10.6,-3.1 -16,-3.6 -2.5,0.5 -5.2,1.6 -6.8,3.1 -6.9,-3.1 -14.3,-1.5 -21.8,1.1 -0.5,0 -1,0.5 -1,1.6 -3.2,-1.6 -5.9,-4.8 -10.1,-3.7 -3.7,1.5 -6.4,2.6 -8.5,5.8 l -4.2,-3.2 c -5.4,1.1 -9.6,3.8 -13.3,7.4 -3.2,3.8 -2.2,10.1 -3.7,14.4 l -4.8,3.1 c -3.2,2.7 -5.3,3.8 -8,5.9 -12.1,9.5 -23.8,22.3 -32.9,33.9 -4.7,5.9 -8.5,11.7 -12.1,18.1 -7,12.8 -12.3,26 -16.5,40.8 -2.1,5.4 -3.2,10.7 -4.8,16 0,1.5 -1.1,2.6 -1.1,4.2 -0.5,3.7 -1.5,6.9 -1.5,10.1 -1.1,4.2 -1.1,9 -2.1,13.8 -1.6,12.7 -1.1,24.9 -2.2,37.2 l 40.9,0.5 c 0,-1.1 -0.6,-2.7 -0.6,-4.3 -0.5,-4.7 -0.5,-9 -0.5,-13.2 1.1,-19.2 5.9,-39.3 12.8,-57.3 0.5,0 0.5,-0.5 1,-0.5 l 1.1,6.3 c 0.5,9 3.2,18.6 6.4,26.5 l 2.6,5.3 c 0.5,2.7 2.1,4.8 3.2,7.4 2.6,4.3 5.2,7.4 7.9,11.7 2.2,2.1 3.7,4.8 5.8,6.4 15.4,17 38.3,27.6 62.2,28.7 z" />
<path
   style="stroke-width:0.21600001;stroke-linecap:square"
   id="path11"
   d="m 1624.2,2528.4 0.5,0 0.4,0 0.5,0 0.5,0 0.9,0 0.9,0 0.9,0 0.4,0 0.5,0 0.4,0 0.5,0 0.5,0 0.5,0 c 28.6,-2.2 48.8,-18.6 67.4,-39.4 4.7,-6.3 8.4,-11.6 12.2,-18.5 1.5,-2.6 2.6,-5.3 4.2,-8.5 3.2,-6.9 5.3,-14.3 7.4,-22.3 0,-0.5 0,-1.6 0.6,-2.1 1,0 0.5,1 1.6,1.6 0,2.7 1,4.8 1,7.4 1.1,2.1 1.1,3.8 1.6,5.9 3.7,19.6 5.3,39.8 0,59.4 1.6,2.1 4.8,0.5 7.5,1 12.1,0.5 23.8,0 36,0.5 12.2,-0.5 24.4,-0.5 36.1,0 0,-15.3 -1.1,-31.2 -3.7,-46.6 -1.6,-8 -3.2,-14.8 -5.3,-22.3 -4.3,-13.8 -9.6,-27 -14.9,-39.3 -2.1,-3.6 -3.7,-6.9 -5.8,-10.6 -12.2,-22.3 -28.1,-44.5 -48.8,-59.9 -10.6,-8.5 -23.9,-13.3 -36.1,-20.2 -1.1,-3.7 -1.1,-7.4 -3.7,-9.6 -3.2,-1.5 -7.5,-1.5 -11.2,-1 -1.5,1 -3.1,1.6 -4.7,3.2 -1.7,-1.6 -2.7,-3.7 -5.3,-4.2 -4.9,-0.6 -10.7,-1.1 -13.9,2.6 -0.5,0 -1,0 -1,-0.6 -3.7,-4.2 -10.6,-3.1 -16,-3.6 -2.5,0.5 -5.2,1.6 -6.8,3.1 -6.9,-3.1 -14.3,-1.5 -21.8,1.1 -0.5,0 -1,0.5 -1,1.6 -3.2,-1.6 -5.9,-4.8 -10.1,-3.7 -3.7,1.5 -6.4,2.6 -8.5,5.8 l -4.2,-3.2 c -5.4,1.1 -9.6,3.8 -13.3,7.4 -3.2,3.8 -2.2,10.1 -3.7,14.4 l -4.8,3.1 c -3.2,2.7 -5.3,3.8 -8,5.9 -12.1,9.5 -23.8,22.3 -32.9,33.9 -4.7,5.9 -8.5,11.7 -12.1,18.1 -7,12.8 -12.3,26 -16.5,40.8 -2.1,5.4 -3.2,10.7 -4.8,16 0,1.5 -1.1,2.6 -1.1,4.2 -0.5,3.7 -1.5,6.9 -1.5,10.1 -1.1,4.2 -1.1,9 -2.1,13.8 -1.6,12.7 -1.1,24.9 -2.2,37.2 l 40.9,0.5 c 0,-1.1 -0.6,-2.7 -0.6,-4.3 -0.5,-4.7 -0.5,-9 -0.5,-13.2 1.1,-19.2 5.9,-39.3 12.8,-57.3 0.5,0 0.5,-0.5 1,-0.5 l 1.1,6.3 c 0.5,9 3.2,18.6 6.4,26.5 l 2.6,5.3 c 0.5,2.7 2.1,4.8 3.2,7.4 2.6,4.3 5.2,7.4 7.9,11.7 2.2,2.1 3.7,4.8 5.8,6.4 15.4,17 38.3,27.6 62.2,28.7 z" />
<path
   style="fill:#ffffff;stroke:#ffffff;stroke-width:0pt;stroke-linecap:square"
   id="path13"
   d="m 1669.8,2459.4 2.1,0 2.2,0 2.2,-0.1 1.2,0 1.1,-0.1 1.1,0 1.1,-0.1 1.2,-0.1 1.1,-0.1 1.2,-0.1 1.1,-0.1 1.2,-0.2 1.2,-0.2 c 5.9,-2.1 9,-5.8 13.8,-10.1 l 2.6,-4.2 2.7,-6.4 c 2.2,-8 0.5,-17 -2.7,-24.4 -3.6,-3.7 -7.9,-7.4 -13.2,-8.5 -11.2,-3.1 -18,-13.8 -31.3,-12.2 -0.5,0.6 -1,1.1 -1.6,1.1 -2.1,3.1 -3.2,8 -4.8,12.2 -2.1,4.8 -3.1,9.5 -5.3,14.3 -2.7,6.9 -3.2,15.4 -1.1,22.3 1.1,2.7 3.3,4.7 3.8,6.9 3.7,4.8 8,6.3 12.7,9 2.1,0.5 4.3,0.5 6.4,1.1 z" />
<path
   style="stroke-width:0.21600001;stroke-linecap:square"
   id="path15"
   d="m 1669.8,2459.4 2.1,0 2.2,0 2.2,-0.1 1.2,0 1.1,-0.1 1.1,0 1.1,-0.1 1.2,-0.1 1.1,-0.1 1.2,-0.1 1.1,-0.1 1.2,-0.2 1.2,-0.2 c 5.9,-2.1 9,-5.8 13.8,-10.1 l 2.6,-4.2 2.7,-6.4 c 2.2,-8 0.5,-17 -2.7,-24.4 -3.6,-3.7 -7.9,-7.4 -13.2,-8.5 -11.2,-3.1 -18,-13.8 -31.3,-12.2 -0.5,0.6 -1,1.1 -1.6,1.1 -2.1,3.1 -3.2,8 -4.8,12.2 -2.1,4.8 -3.1,9.5 -5.3,14.3 -2.7,6.9 -3.2,15.4 -1.1,22.3 1.1,2.7 3.3,4.7 3.8,6.9 3.7,4.8 8,6.3 12.7,9 2.1,0.5 4.3,0.5 6.4,1.1 z" />
<path
   style="fill:#ffffff;stroke:#ffffff;stroke-width:0pt;stroke-linecap:square"
   id="path17"
   d="m 1605.6,2457.8 0.4,0 0.4,0 0.4,0 0.4,0 0.5,0 0.4,0 0.2,0 0.2,0 0.2,0 0.2,0 0.2,0 0.2,-0.1 0.2,0 0.2,-0.1 0.1,0 0.2,-0.1 0.2,-0.1 0.2,-0.1 0.1,-0.1 0.2,-0.1 0.1,-0.1 0.2,-0.1 0.1,-0.2 0.1,-0.1 0.1,-0.2 0.1,-0.2 c 4.3,-6.4 9,-13.8 9,-22.3 -1.1,-12.8 -2.1,-25.5 -5.3,-37.7 -1,-3.7 -4.2,-6.9 -7.4,-7.4 -9.6,-2.1 -16.4,4.8 -23.8,8.5 -9.6,1.6 -18.6,4.3 -24,12.2 -2.6,3.7 -0.5,8 -2.1,12.2 -0.5,7.4 0,16.4 5.3,20.7 4.3,2.7 9.6,4.2 13.8,6.3 7,1.7 11.7,5.4 18,6.9 1.6,0.6 3.8,0.6 5.4,1.6 2.1,0 3.7,0 5.3,0.6 z" />
<path
   style="stroke-width:0.21600001;stroke-linecap:square"
   id="path19"
   d="m 1605.6,2457.8 0.4,0 0.4,0 0.4,0 0.4,0 0.5,0 0.4,0 0.2,0 0.2,0 0.2,0 0.2,0 0.2,0 0.2,-0.1 0.2,0 0.2,-0.1 0.1,0 0.2,-0.1 0.2,-0.1 0.2,-0.1 0.1,-0.1 0.2,-0.1 0.1,-0.1 0.2,-0.1 0.1,-0.2 0.1,-0.1 0.1,-0.2 0.1,-0.2 c 4.3,-6.4 9,-13.8 9,-22.3 -1.1,-12.8 -2.1,-25.5 -5.3,-37.7 -1,-3.7 -4.2,-6.9 -7.4,-7.4 -9.6,-2.1 -16.4,4.8 -23.8,8.5 -9.6,1.6 -18.6,4.3 -24,12.2 -2.6,3.7 -0.5,8 -2.1,12.2 -0.5,7.4 0,16.4 5.3,20.7 4.3,2.7 9.6,4.2 13.8,6.3 7,1.7 11.7,5.4 18,6.9 1.6,0.6 3.8,0.6 5.4,1.6 2.1,0 3.7,0 5.3,0.6 z" />
<path
   style="fill:#ffffff;stroke:#ffffff;stroke-width:0pt;stroke-linecap:square"
   id="path21"
   d="m 1636.8,2439.2 0.1,0 0,0 0,0 0,0 0,0 0,0 0,0 0,0 0,0 0,0 0,0 0,0 0,0 0,0 0,0 0,0 0.1,0 0,0 0,0 0,0 0.1,0 0,0 0,0 0.1,0 0,0 0,0 0.1,0 0,0 0,0 0,0 0,0 0.1,0 0,0 0,0 0,0 0,0 0,0 0,0 0,0 0,0 0,0 0,0 0,0 0,0 0,0 0,0 c 1.6,-2.6 1.1,-6.9 1.6,-10.1 1.1,-10 4.3,-20.1 4.3,-29.7 0.5,-3.2 0.5,-5.8 1,-9 2.1,-10.7 -2.1,-20.2 -4.8,-30.2 -0.5,-1.1 -0.5,-2.2 -0.5,-3.8 0,-0.5 -1.1,-1.1 -2.2,-1.6 l -1.5,6.9 c -0.5,0.5 -2.1,1.1 -2.7,0.5 -1,-1 -1.6,-1.5 -1,-2.6 0,-3.2 1,-6.4 -1.1,-9 0,0 -0.5,0 -0.5,0 -5.3,9 -8.5,21.2 -9.6,32.4 0.5,16.4 6.4,31.2 5.9,47.1 1,1.1 1,2.2 1.5,2.7 3.2,-9 -0.5,-21.7 3.8,-30.2 0.5,-0.5 1,-0.5 1.6,-1 0,0 0,0.5 0,0.5 2.1,11.1 0,24.4 2.6,36.5 0,0.6 0.5,0.6 1,0.6 l 0,0 z" />
<path
   style="stroke-width:0.21600001;stroke-linecap:square"
   id="path23"
   d="m 1636.8,2439.2 0.1,0 0,0 0,0 0,0 0,0 0,0 0,0 0,0 0,0 0,0 0,0 0,0 0,0 0,0 0,0 0,0 0.1,0 0,0 0,0 0,0 0.1,0 0,0 0,0 0.1,0 0,0 0,0 0.1,0 0,0 0,0 0,0 0,0 0.1,0 0,0 0,0 0,0 0,0 0,0 0,0 0,0 0,0 0,0 0,0 0,0 0,0 0,0 0,0 c 1.6,-2.6 1.1,-6.9 1.6,-10.1 1.1,-10 4.3,-20.1 4.3,-29.7 0.5,-3.2 0.5,-5.8 1,-9 2.1,-10.7 -2.1,-20.2 -4.8,-30.2 -0.5,-1.1 -0.5,-2.2 -0.5,-3.8 0,-0.5 -1.1,-1.1 -2.2,-1.6 l -1.5,6.9 c -0.5,0.5 -2.1,1.1 -2.7,0.5 -1,-1 -1.6,-1.5 -1,-2.6 0,-3.2 1,-6.4 -1.1,-9 0,0 -0.5,0 -0.5,0 -5.3,9 -8.5,21.2 -9.6,32.4 0.5,16.4 6.4,31.2 5.9,47.1 1,1.1 1,2.2 1.5,2.7 3.2,-9 -0.5,-21.7 3.8,-30.2 0.5,-0.5 1,-0.5 1.6,-1 0,0 0,0.5 0,0.5 2.1,11.1 0,24.4 2.6,36.5 0,0.6 0.5,0.6 1,0.6 l 0,0 z" />
<path
   style="fill:#ffffff;stroke:#ffffff;stroke-width:0pt;stroke-linecap:square"
   id="path25"
   d="m 1718.1,2430.7 0,0 0,0 0,0 0,0 0,0 0,0 0,0 0,0 0,0 0,0 0,0 0,0 0,0 0,0 0,0 0,0 0.1,0 0,0 0,0 0,0 0,0 0.1,0 0,0 0.1,0 0,0 0,0 0,0 0.1,0 0,0 0,0 0,0 0,0 0,0 0,0 0,0 0,0 0,0 0,0 0.1,0 0,0 0,0 0,0 0,0 0,0 0,0 0,0 c 0.5,-0.6 1.1,-1.1 1.1,-1.6 0,-3.1 -2.7,-5.3 -2.7,-8.5 -1.1,-4.7 -0.5,-10 -0.5,-14.8 0,0 0.5,0 1,-0.6 -0.5,-1.1 0.6,-2.6 0,-3.6 0.6,-3.3 0.6,-5.9 1.1,-8.5 0.5,-6.4 0.5,-12.3 0,-17.6 0,-0.5 0,-1 0,-1 0,-0.6 0,-0.6 -0.5,-1.1 0,-0.5 0.5,-0.5 0.5,-1.1 l -1.1,-6.9 c -2.1,-3.7 -3.2,-7.9 -7.4,-10.1 -0.5,0 -1,0 -1.6,0 -1.1,0 -1.6,1.7 -1.1,2.2 4.3,2.7 7.5,6.9 8,13.2 1.1,5.4 1.1,10.1 1.1,15.4 -1.6,14.9 -6.9,31.4 1.6,44.6 l 0,0 z" />
<path
   style="stroke-width:0.21600001;stroke-linecap:square"
   id="path27"
   d="m 1718.1,2430.7 0,0 0,0 0,0 0,0 0,0 0,0 0,0 0,0 0,0 0,0 0,0 0,0 0,0 0,0 0,0 0,0 0.1,0 0,0 0,0 0,0 0,0 0.1,0 0,0 0.1,0 0,0 0,0 0,0 0.1,0 0,0 0,0 0,0 0,0 0,0 0,0 0,0 0,0 0,0 0,0 0.1,0 0,0 0,0 0,0 0,0 0,0 0,0 0,0 c 0.5,-0.6 1.1,-1.1 1.1,-1.6 0,-3.1 -2.7,-5.3 -2.7,-8.5 -1.1,-4.7 -0.5,-10 -0.5,-14.8 0,0 0.5,0 1,-0.6 -0.5,-1.1 0.6,-2.6 0,-3.6 0.6,-3.3 0.6,-5.9 1.1,-8.5 0.5,-6.4 0.5,-12.3 0,-17.6 0,-0.5 0,-1 0,-1 0,-0.6 0,-0.6 -0.5,-1.1 0,-0.5 0.5,-0.5 0.5,-1.1 l -1.1,-6.9 c -2.1,-3.7 -3.2,-7.9 -7.4,-10.1 -0.5,0 -1,0 -1.6,0 -1.1,0 -1.6,1.7 -1.1,2.2 4.3,2.7 7.5,6.9 8,13.2 1.1,5.4 1.1,10.1 1.1,15.4 -1.6,14.9 -6.9,31.4 1.6,44.6 l 0,0 z" />
<path
   style="fill:#ffffff;stroke:#ffffff;stroke-width:0pt;stroke-linecap:square"
   id="path29"
   d="m 1537.6,2425.4 0.1,0 0,0 0.1,0 0.1,0 0,0 0.1,-0.1 0.1,0 0,0 0.1,0 0.1,0 0,-0.1 0.1,0 0.1,0 0,-0.1 0.1,0 0.1,0 0,-0.1 0.1,0 0.1,-0.1 0,0 0.1,0 0,-0.1 0.1,0 0,-0.1 0.1,0 0,-0.1 0,0 0,-0.1 0.1,0 0,-0.1 0,0 0,0 0,-0.1 0,0 c 0.5,-2.1 1.6,-3.2 2.1,-4.7 0.5,-1.1 1.6,-1.6 1.1,-3.2 l 1,-3.8 1.6,-5.8 0,-3.2 0.5,-6.3 -0.5,-1.6 -1.1,-15.4 c 1.1,-0.6 0,-1.6 0.5,-2.1 0,0 0,0 0.6,-0.5 l 0,-5.9 c 0,0 0.5,-0.5 1,-0.5 l 1.1,-6.4 1.6,-3.7 c 1.1,-1 1.6,-3.2 1.6,-5.3 0,-1.1 -0.5,-1.1 -1,-1.1 -4.3,4.8 -6.9,12.3 -8.5,20.2 0,1.6 0.5,2.7 0,4.2 0,14.4 2.6,30.3 -4.3,43.5 0,0.6 -0.5,1.6 -0.5,2.2 0.5,0 1,0.5 1.5,0.5 z" />
<path
   style="stroke-width:0.21600001;stroke-linecap:square"
   id="path31"
   d="m 1537.6,2425.4 0.1,0 0,0 0.1,0 0.1,0 0,0 0.1,-0.1 0.1,0 0,0 0.1,0 0.1,0 0,-0.1 0.1,0 0.1,0 0,-0.1 0.1,0 0.1,0 0,-0.1 0.1,0 0.1,-0.1 0,0 0.1,0 0,-0.1 0.1,0 0,-0.1 0.1,0 0,-0.1 0,0 0,-0.1 0.1,0 0,-0.1 0,0 0,0 0,-0.1 0,0 c 0.5,-2.1 1.6,-3.2 2.1,-4.7 0.5,-1.1 1.6,-1.6 1.1,-3.2 l 1,-3.8 1.6,-5.8 0,-3.2 0.5,-6.3 -0.5,-1.6 -1.1,-15.4 c 1.1,-0.6 0,-1.6 0.5,-2.1 0,0 0,0 0.6,-0.5 l 0,-5.9 c 0,0 0.5,-0.5 1,-0.5 l 1.1,-6.4 1.6,-3.7 c 1.1,-1 1.6,-3.2 1.6,-5.3 0,-1.1 -0.5,-1.1 -1,-1.1 -4.3,4.8 -6.9,12.3 -8.5,20.2 0,1.6 0.5,2.7 0,4.2 0,14.4 2.6,30.3 -4.3,43.5 0,0.6 -0.5,1.6 -0.5,2.2 0.5,0 1,0.5 1.5,0.5 z" />
<path
   style="fill:#ffffff;stroke:#ffffff;stroke-width:0pt;stroke-linecap:square"
   id="path33"
   d="m 1622,2334.7 0.2,0 0.1,0 0.2,0 0.1,-0.1 0.4,0 0.3,0 0.3,-0.1 0.4,0 0.3,-0.1 0.3,-0.1 0.2,-0.1 0.1,0 0.2,-0.1 0.1,0 0.2,-0.1 0.1,-0.1 0.2,0 0.1,-0.1 0.2,-0.1 0.1,-0.1 0.1,0 0.1,-0.1 0.2,-0.1 0.1,-0.1 0.1,-0.1 0.1,-0.1 c 0,-0.5 0,-1.1 0,-1.1 0.5,-7.4 2.1,-15.9 -0.5,-22.8 -4.3,-2.1 -9.6,0 -14.4,1.1 -0.5,0 -1,0.5 -1.6,1 -1,4.3 0.6,9.6 1.1,13.8 0.5,2.2 1,3.2 1.6,4.2 l 6.9,4.3 2.1,1.1 z" />
<path
   style="stroke-width:0.21600001;stroke-linecap:square"
   id="path35"
   d="m 1622,2334.7 0.2,0 0.1,0 0.2,0 0.1,-0.1 0.4,0 0.3,0 0.3,-0.1 0.4,0 0.3,-0.1 0.3,-0.1 0.2,-0.1 0.1,0 0.2,-0.1 0.1,0 0.2,-0.1 0.1,-0.1 0.2,0 0.1,-0.1 0.2,-0.1 0.1,-0.1 0.1,0 0.1,-0.1 0.2,-0.1 0.1,-0.1 0.1,-0.1 0.1,-0.1 c 0,-0.5 0,-1.1 0,-1.1 0.5,-7.4 2.1,-15.9 -0.5,-22.8 -4.3,-2.1 -9.6,0 -14.4,1.1 -0.5,0 -1,0.5 -1.6,1 -1,4.3 0.6,9.6 1.1,13.8 0.5,2.2 1,3.2 1.6,4.2 l 6.9,4.3 2.1,1.1 z" />
<path
   style="fill:#ffffff;stroke:#ffffff;stroke-width:0pt;stroke-linecap:square"
   id="path37"
   d="m 1641.7,2334.7 0.2,-0.1 0.3,0 0.2,-0.1 0.3,-0.1 0.2,0 0.3,-0.1 0.2,-0.1 0.2,-0.1 0.3,-0.1 0.2,-0.1 0.2,-0.1 0.3,-0.1 0.2,-0.1 0.2,-0.2 0.2,-0.1 0.2,-0.1 0.2,-0.2 0.2,-0.1 0.2,-0.2 0.2,-0.1 0.2,-0.2 0.2,-0.1 0.2,-0.2 0.1,-0.2 0.2,-0.1 0.2,-0.2 0.1,-0.2 0.1,-0.2 0.2,-0.2 0.1,-0.2 0.1,-0.2 0.1,-0.2 c 2.2,-6.3 4.8,-14.8 1.1,-20.6 -0.5,-0.6 -0.5,-1.1 -1.1,-1.6 -4.2,-2.2 -10.6,-1.1 -15.4,0.5 l 0.6,22.2 c 1.6,3.3 5.3,3.3 8.5,3.8 z" />
<path
   style="stroke-width:0.21600001;stroke-linecap:square"
   id="path39"
   d="m 1641.7,2334.7 0.2,-0.1 0.3,0 0.2,-0.1 0.3,-0.1 0.2,0 0.3,-0.1 0.2,-0.1 0.2,-0.1 0.3,-0.1 0.2,-0.1 0.2,-0.1 0.3,-0.1 0.2,-0.1 0.2,-0.2 0.2,-0.1 0.2,-0.1 0.2,-0.2 0.2,-0.1 0.2,-0.2 0.2,-0.1 0.2,-0.2 0.2,-0.1 0.2,-0.2 0.1,-0.2 0.2,-0.1 0.2,-0.2 0.1,-0.2 0.1,-0.2 0.2,-0.2 0.1,-0.2 0.1,-0.2 0.1,-0.2 c 2.2,-6.3 4.8,-14.8 1.1,-20.6 -0.5,-0.6 -0.5,-1.1 -1.1,-1.6 -4.2,-2.2 -10.6,-1.1 -15.4,0.5 l 0.6,22.2 c 1.6,3.3 5.3,3.3 8.5,3.8 z" />
<path
   style="fill:#000000;stroke-width:0pt;stroke-linecap:square"
   id="path41"
   d="m 1782.3,2330.9 0.8,-0.1 0.9,-0.1 0.8,-0.2 0.9,-0.1 0.8,-0.2 0.8,-0.2 0.8,-0.3 0.9,-0.2 0.8,-0.3 0.8,-0.3 0.8,-0.4 0.8,-0.3 0.7,-0.4 0.8,-0.4 0.8,-0.4 0.7,-0.4 0.7,-0.5 0.7,-0.5 0.7,-0.5 0.7,-0.5 0.7,-0.5 0.6,-0.6 0.6,-0.6 0.6,-0.6 0.6,-0.6 0.6,-0.7 0.5,-0.6 0.5,-0.7 0.5,-0.8 0.5,-0.7 0.4,-0.8 0.4,-0.7 c 4.3,-8.5 1.6,-19.2 -2.1,-27.1 -2.1,-4.8 -5.3,-8.5 -7.4,-12.2 0,-0.5 0,-0.5 0.5,-1.1 2.1,0.6 3.7,3.2 5.9,4.8 2.6,-1.1 4.7,-4.8 6.3,-7.4 0.6,-1.1 0.6,-2.7 1.6,-4.3 0.6,-3.2 0,-5.8 0,-9.5 -1,-8.5 -6.4,-14.9 -12.2,-19.1 -9.6,-4.8 -20.7,-7.4 -30.2,-3.2 -4.8,2.6 -9.6,6.9 -11.2,12.2 -1.6,5.8 -1.6,11.1 0,16.4 0,0.6 0,0.6 -0.5,0.6 0,0.5 -1.1,0.5 -1.6,0.5 -1.6,-2.1 -2.1,-4.8 -2.6,-7.9 l -21.8,0 -24.4,38.1 48.8,0.6 c 0.5,10.6 4.3,22.2 13.3,28.1 1.1,0.6 2.1,1.6 3.2,2.1 4.2,1.6 7.9,2.6 12.2,2.6 z" />
<path
   style="stroke-width:0.21600001;stroke-linecap:square"
   id="path43"
   d="m 1782.3,2330.9 0.8,-0.1 0.9,-0.1 0.8,-0.2 0.9,-0.1 0.8,-0.2 0.8,-0.2 0.8,-0.3 0.9,-0.2 0.8,-0.3 0.8,-0.3 0.8,-0.4 0.8,-0.3 0.7,-0.4 0.8,-0.4 0.8,-0.4 0.7,-0.4 0.7,-0.5 0.7,-0.5 0.7,-0.5 0.7,-0.5 0.7,-0.5 0.6,-0.6 0.6,-0.6 0.6,-0.6 0.6,-0.6 0.6,-0.7 0.5,-0.6 0.5,-0.7 0.5,-0.8 0.5,-0.7 0.4,-0.8 0.4,-0.7 c 4.3,-8.5 1.6,-19.2 -2.1,-27.1 -2.1,-4.8 -5.3,-8.5 -7.4,-12.2 0,-0.5 0,-0.5 0.5,-1.1 2.1,0.6 3.7,3.2 5.9,4.8 2.6,-1.1 4.7,-4.8 6.3,-7.4 0.6,-1.1 0.6,-2.7 1.6,-4.3 0.6,-3.2 0,-5.8 0,-9.5 -1,-8.5 -6.4,-14.9 -12.2,-19.1 -9.6,-4.8 -20.7,-7.4 -30.2,-3.2 -4.8,2.6 -9.6,6.9 -11.2,12.2 -1.6,5.8 -1.6,11.1 0,16.4 0,0.6 0,0.6 -0.5,0.6 0,0.5 -1.1,0.5 -1.6,0.5 -1.6,-2.1 -2.1,-4.8 -2.6,-7.9 l -21.8,0 -24.4,38.1 48.8,0.6 c 0.5,10.6 4.3,22.2 13.3,28.1 1.1,0.6 2.1,1.6 3.2,2.1 4.2,1.6 7.9,2.6 12.2,2.6 z" />
<path
   style="fill:#ffffff;stroke:#ffffff;stroke-width:0pt;stroke-linecap:square"
   id="path45"
   d="m 1659.2,2330.4 0.6,0 0.6,0 0.6,0 0.6,-0.1 0.6,-0.1 0.7,-0.1 0.6,-0.1 0.3,0 0.3,-0.1 0.3,-0.1 0.3,-0.1 0.3,-0.1 0.2,0 0.3,-0.2 0.3,-0.1 0.3,-0.1 0.2,-0.1 0.3,-0.1 0.2,-0.2 0.3,-0.1 0.2,-0.2 0.2,-0.2 0.3,-0.2 0.2,-0.1 0.2,-0.2 c 0.5,-6.4 1,-12.8 -0.5,-18 -2.7,-2.2 -6.4,-2.2 -9.6,-0.6 -2.7,1.6 -2.7,5.3 -2.7,8 0.6,4.2 -0.5,8.5 1.1,12.1 1.6,0.6 2.2,1.1 2.7,1.1 z" />
<path
   style="stroke-width:0.21600001;stroke-linecap:square"
   id="path47"
   d="m 1659.2,2330.4 0.6,0 0.6,0 0.6,0 0.6,-0.1 0.6,-0.1 0.7,-0.1 0.6,-0.1 0.3,0 0.3,-0.1 0.3,-0.1 0.3,-0.1 0.3,-0.1 0.2,0 0.3,-0.2 0.3,-0.1 0.3,-0.1 0.2,-0.1 0.3,-0.1 0.2,-0.2 0.3,-0.1 0.2,-0.2 0.2,-0.2 0.3,-0.2 0.2,-0.1 0.2,-0.2 c 0.5,-6.4 1,-12.8 -0.5,-18 -2.7,-2.2 -6.4,-2.2 -9.6,-0.6 -2.7,1.6 -2.7,5.3 -2.7,8 0.6,4.2 -0.5,8.5 1.1,12.1 1.6,0.6 2.2,1.1 2.7,1.1 z" />
<path
   style="fill:#ffffff;stroke:#ffffff;stroke-width:0pt;stroke-linecap:square"
   id="path49"
   d="m 1597.1,2329.9 0.6,-0.1 0.6,-0.1 0.6,-0.1 0.6,-0.1 0.5,-0.2 0.6,-0.1 0.3,-0.1 0.2,-0.1 0.3,-0.1 0.3,-0.1 0.2,-0.1 0.3,-0.2 0.2,-0.1 0.3,-0.1 0.2,-0.2 0.2,-0.2 0.2,-0.1 0.3,-0.2 0.2,-0.2 0.2,-0.2 0.2,-0.2 0.2,-0.3 0.1,-0.2 0.2,-0.3 0.2,-0.2 0.1,-0.3 c 1.1,-4.3 0,-9.6 -1,-13.8 -0.6,-0.6 -1.1,-1.6 -1.6,-2.1 -3.2,-2.2 -6.9,0 -9.5,1 -3.8,4.2 -2.2,10.1 -1.6,14.3 0,1.7 1,2.2 1.6,3.2 l 4.2,1.6 z" />
<path
   style="stroke-width:0.21600001;stroke-linecap:square"
   id="path51"
   d="m 1597.1,2329.9 0.6,-0.1 0.6,-0.1 0.6,-0.1 0.6,-0.1 0.5,-0.2 0.6,-0.1 0.3,-0.1 0.2,-0.1 0.3,-0.1 0.3,-0.1 0.2,-0.1 0.3,-0.2 0.2,-0.1 0.3,-0.1 0.2,-0.2 0.2,-0.2 0.2,-0.1 0.3,-0.2 0.2,-0.2 0.2,-0.2 0.2,-0.2 0.2,-0.3 0.1,-0.2 0.2,-0.3 0.2,-0.2 0.1,-0.3 c 1.1,-4.3 0,-9.6 -1,-13.8 -0.6,-0.6 -1.1,-1.6 -1.6,-2.1 -3.2,-2.2 -6.9,0 -9.5,1 -3.8,4.2 -2.2,10.1 -1.6,14.3 0,1.7 1,2.2 1.6,3.2 l 4.2,1.6 z" />
<path
   style="fill:#ffffff;stroke:#ffffff;stroke-width:0pt;stroke-linecap:square"
   id="path53"
   d="m 1684.7,2329.9 0.1,-0.1 0.2,-0.1 0.2,-0.1 0.1,-0.2 0.2,-0.1 0.1,-0.2 0.2,-0.2 0.1,-0.1 0.1,-0.2 0.1,-0.2 0.1,-0.2 0.1,-0.2 0.1,-0.2 0.1,-0.2 0,-0.3 0.1,-0.2 0.2,-0.4 0.1,-0.5 0.1,-0.5 0.2,-0.4 0.1,-0.5 0.1,-0.2 0.1,-0.2 0,-0.3 0.1,-0.2 0.1,-0.2 0.1,-0.2 c 0,-4.7 0.5,-9.5 -1.6,-13.2 -2.6,-1.6 -6.9,-1.1 -10,0 -1.1,1 -1.6,1.6 -1.6,2.6 -1.1,3.8 -1.1,8 0,12.2 2.1,2.7 6.3,3.7 10.1,4.8 z" />
<path
   style="stroke-width:0.21600001;stroke-linecap:square"
   id="path55"
   d="m 1684.7,2329.9 0.1,-0.1 0.2,-0.1 0.2,-0.1 0.1,-0.2 0.2,-0.1 0.1,-0.2 0.2,-0.2 0.1,-0.1 0.1,-0.2 0.1,-0.2 0.1,-0.2 0.1,-0.2 0.1,-0.2 0.1,-0.2 0,-0.3 0.1,-0.2 0.2,-0.4 0.1,-0.5 0.1,-0.5 0.2,-0.4 0.1,-0.5 0.1,-0.2 0.1,-0.2 0,-0.3 0.1,-0.2 0.1,-0.2 0.1,-0.2 c 0,-4.7 0.5,-9.5 -1.6,-13.2 -2.6,-1.6 -6.9,-1.1 -10,0 -1.1,1 -1.6,1.6 -1.6,2.6 -1.1,3.8 -1.1,8 0,12.2 2.1,2.7 6.3,3.7 10.1,4.8 z" />
<path
   style="fill:#ffffff;stroke:#ffffff;stroke-width:0pt;stroke-linecap:square"
   id="path57"
   d="m 1574.8,2329.3 1,0 1,0 1,0 0.5,0 0.5,0 0.6,0 0.5,-0.1 0.5,0 0.6,-0.1 0.5,0 0.6,-0.1 0.6,-0.1 0.6,-0.1 c 1.1,-0.5 1.6,-0.5 2.1,-1 1.6,-4.8 0.5,-10.6 -1,-15.4 -0.5,-0.5 -1.1,-0.5 -1.1,-1.1 -3.2,0.6 -6.4,2.1 -8.5,3.7 -1.6,3.8 -3.2,8 -2.1,12.3 0,0.5 0.5,1 0.5,1.5 l 1.6,0.5 z" />
<path
   style="stroke-width:0.21600001;stroke-linecap:square"
   id="path59"
   d="m 1574.8,2329.3 1,0 1,0 1,0 0.5,0 0.5,0 0.6,0 0.5,-0.1 0.5,0 0.6,-0.1 0.5,0 0.6,-0.1 0.6,-0.1 0.6,-0.1 c 1.1,-0.5 1.6,-0.5 2.1,-1 1.6,-4.8 0.5,-10.6 -1,-15.4 -0.5,-0.5 -1.1,-0.5 -1.1,-1.1 -3.2,0.6 -6.4,2.1 -8.5,3.7 -1.6,3.8 -3.2,8 -2.1,12.3 0,0.5 0.5,1 0.5,1.5 l 1.6,0.5 z" />
<path
   style="fill:#000000;stroke-width:0pt;stroke-linecap:square"
   id="path61"
   d="m 1525.5,2325.1 1.3,0 1.2,-0.1 0.7,-0.1 0.6,0 0.7,-0.1 0.6,-0.1 0.6,-0.1 0.6,-0.2 0.7,-0.1 0.6,-0.2 0.6,-0.1 0.6,-0.2 0.6,-0.2 0.5,-0.3 0.6,-0.2 0.6,-0.3 0.5,-0.3 0.5,-0.3 0.6,-0.3 0.5,-0.3 0.5,-0.4 0.5,-0.3 0.4,-0.4 0.5,-0.4 0.4,-0.5 0.4,-0.4 0.4,-0.5 0.4,-0.5 0.4,-0.5 0.4,-0.5 c 3.7,-4.8 5.8,-11.7 4.2,-18.1 0,-1.6 -0.5,-2.6 -0.5,-3.7 l 49.3,1.1 c 0.5,0 0.5,-0.6 0.5,-1.1 l -22.7,-37.1 -29.3,0 -5.8,6.9 c -0.5,0 -1.6,-1.1 -1.6,-1.6 3.8,-4.8 6.4,-11.7 4.3,-19.1 -2.7,-6.9 -8,-13.8 -14.3,-16.5 -8,-2.6 -16,2.1 -21.3,6.9 -7.4,6.9 -12.2,14.9 -12.7,25.5 0,2.1 0.5,3.2 1.6,5.3 0.5,3.2 2.1,4.7 3.7,7.4 2.2,2.7 4.2,4.8 6.4,6.4 2.1,1.6 4.2,2.1 5.8,4.8 l 0,1.1 c -1.6,1.5 -3.2,0 -4.2,-0.6 -1.1,-1 -1.6,-1 -2.2,-1.6 -3.6,2.7 -5.3,6.4 -6.3,11.2 -1.1,7.4 1,15.4 5.8,20.1 2.1,2.2 4.3,4.3 6.4,5.3 4.8,2.7 10.6,4.8 15.4,5.3 z" />
<path
   style="stroke-width:0.21600001;stroke-linecap:square"
   id="path63"
   d="m 1525.5,2325.1 1.3,0 1.2,-0.1 0.7,-0.1 0.6,0 0.7,-0.1 0.6,-0.1 0.6,-0.1 0.6,-0.2 0.7,-0.1 0.6,-0.2 0.6,-0.1 0.6,-0.2 0.6,-0.2 0.5,-0.3 0.6,-0.2 0.6,-0.3 0.5,-0.3 0.5,-0.3 0.6,-0.3 0.5,-0.3 0.5,-0.4 0.5,-0.3 0.4,-0.4 0.5,-0.4 0.4,-0.5 0.4,-0.4 0.4,-0.5 0.4,-0.5 0.4,-0.5 0.4,-0.5 c 3.7,-4.8 5.8,-11.7 4.2,-18.1 0,-1.6 -0.5,-2.6 -0.5,-3.7 l 49.3,1.1 c 0.5,0 0.5,-0.6 0.5,-1.1 l -22.7,-37.1 -29.3,0 -5.8,6.9 c -0.5,0 -1.6,-1.1 -1.6,-1.6 3.8,-4.8 6.4,-11.7 4.3,-19.1 -2.7,-6.9 -8,-13.8 -14.3,-16.5 -8,-2.6 -16,2.1 -21.3,6.9 -7.4,6.9 -12.2,14.9 -12.7,25.5 0,2.1 0.5,3.2 1.6,5.3 0.5,3.2 2.1,4.7 3.7,7.4 2.2,2.7 4.2,4.8 6.4,6.4 2.1,1.6 4.2,2.1 5.8,4.8 l 0,1.1 c -1.6,1.5 -3.2,0 -4.2,-0.6 -1.1,-1 -1.6,-1 -2.2,-1.6 -3.6,2.7 -5.3,6.4 -6.3,11.2 -1.1,7.4 1,15.4 5.8,20.1 2.1,2.2 4.3,4.3 6.4,5.3 4.8,2.7 10.6,4.8 15.4,5.3 z" />
<path
   style="fill:#000000;stroke-width:0pt;stroke-linecap:square"
   id="path65"
   d="m 1678.8,2297 7.4,0 19.6,-29.7 c 7.5,-1.6 12.3,-5.9 17,-11.7 4.3,-6.3 5.3,-15.4 2.7,-22.8 -4.3,-4.8 -8.5,-8.5 -14.3,-8.5 -4.8,1.6 -8,3.2 -10.1,6.9 0,2.7 3.7,3.7 3.1,7.4 0,0 0,0.6 0,0.6 0,0 -0.5,0.5 -0.5,0.5 -4.7,-6.3 -12.7,-11.2 -21.7,-11.2 -5.3,1.1 -10.7,3.2 -13.3,7.5 -3.2,3.7 -3.7,9 -2.1,13.3 1.6,5.2 5.3,9.5 9.6,12.7 0,1 -1.1,1 -1.6,1.6 l -4.8,-2.2 -19.1,34.5 c 0,1.1 0.5,0.6 1.1,1.1 9.5,0 18,0 27,0 z" />
<path
   style="stroke-width:0.21600001;stroke-linecap:square"
   id="path67"
   d="m 1678.8,2297 7.4,0 19.6,-29.7 c 7.5,-1.6 12.3,-5.9 17,-11.7 4.3,-6.3 5.3,-15.4 2.7,-22.8 -4.3,-4.8 -8.5,-8.5 -14.3,-8.5 -4.8,1.6 -8,3.2 -10.1,6.9 0,2.7 3.7,3.7 3.1,7.4 0,0 0,0.6 0,0.6 0,0 -0.5,0.5 -0.5,0.5 -4.7,-6.3 -12.7,-11.2 -21.7,-11.2 -5.3,1.1 -10.7,3.2 -13.3,7.5 -3.2,3.7 -3.7,9 -2.1,13.3 1.6,5.2 5.3,9.5 9.6,12.7 0,1 -1.1,1 -1.6,1.6 l -4.8,-2.2 -19.1,34.5 c 0,1.1 0.5,0.6 1.1,1.1 9.5,0 18,0 27,0 z" />
<path
   style="fill:#000000;stroke-width:0pt;stroke-linecap:square"
   id="path69"
   d="m 1624.7,2296.5 21.7,0 c 1.1,0 0,-1.1 -0.5,-1.6 -5.3,-9 -10.1,-17 -14.9,-25.5 -2.1,-3.7 -4.7,-7.4 -6.8,-11.1 0,0 0,0 0.5,-0.5 2.1,1 4.2,0 5.8,-1.7 3.2,-3.7 2.7,-9.5 1.6,-14.3 -2.1,-6.3 -8.5,-10.6 -14.3,-12.7 -3.7,-1.1 -8,-1.6 -10.6,1 -2.2,3.3 0,6.9 -1.6,9.6 -0.6,0.5 -1.1,0.5 -1.6,0.5 -0.6,0 -1.1,-1 -1.6,-1.6 1.6,-4.2 -1.1,-6.9 -4.3,-9.5 -3.2,-2.6 -7.4,-5.3 -12.2,-4.8 -3.1,1.1 -5.3,3.7 -7.4,5.8 -2.1,3.8 -4.2,9.6 -2.6,14.9 0.5,5.9 4.2,10.6 9,13.8 4.8,3.7 10.6,3.7 15.9,3.2 1.1,0 0.5,0.5 0.5,1.6 l -5.3,2.1 19.1,30.8 9.6,0 z" />
<path
   style="stroke-width:0.21600001;stroke-linecap:square"
   id="path71"
   d="m 1624.7,2296.5 21.7,0 c 1.1,0 0,-1.1 -0.5,-1.6 -5.3,-9 -10.1,-17 -14.9,-25.5 -2.1,-3.7 -4.7,-7.4 -6.8,-11.1 0,0 0,0 0.5,-0.5 2.1,1 4.2,0 5.8,-1.7 3.2,-3.7 2.7,-9.5 1.6,-14.3 -2.1,-6.3 -8.5,-10.6 -14.3,-12.7 -3.7,-1.1 -8,-1.6 -10.6,1 -2.2,3.3 0,6.9 -1.6,9.6 -0.6,0.5 -1.1,0.5 -1.6,0.5 -0.6,0 -1.1,-1 -1.6,-1.6 1.6,-4.2 -1.1,-6.9 -4.3,-9.5 -3.2,-2.6 -7.4,-5.3 -12.2,-4.8 -3.1,1.1 -5.3,3.7 -7.4,5.8 -2.1,3.8 -4.2,9.6 -2.6,14.9 0.5,5.9 4.2,10.6 9,13.8 4.8,3.7 10.6,3.7 15.9,3.2 1.1,0 0.5,0.5 0.5,1.6 l -5.3,2.1 19.1,30.8 9.6,0 z" />
</g>      <g
         id="content-7"
         transform="matrix(3.2194219,0,0,-2.8454698,-4476.6372,7796.3639)"
         xml:space="preserve"
         stroke-miterlimit="10.433"
         fill-rule="even-odd"
         font-style="normal"
         font-variant="normal"
         font-weight="normal"
         font-stretch="normal"
         font-size-adjust="none"
         letter-spacing="normal"
         word-spacing="normal"
         style="font-style:normal;font-variant:normal;font-weight:normal;font-stretch:normal;letter-spacing:normal;word-spacing:normal;text-anchor:start;fill:none;stroke:#000000;stroke-width:1;stroke-linecap:butt;stroke-linejoin:miter;stroke-miterlimit:10.43299961;stroke-opacity:1;stroke-dasharray:none;stroke-dashoffset:0">
<path
   d="m 1624.2,2528.4 0.5,0 0.4,0 0.5,0 0.5,0 0.9,0 0.9,0 0.9,0 0.4,0 0.5,0 0.4,0 0.5,0 0.5,0 0.5,0 c 28.6,-2.2 48.8,-18.6 67.4,-39.4 4.7,-6.3 8.4,-11.6 12.2,-18.5 1.5,-2.6 2.6,-5.3 4.2,-8.5 3.2,-6.9 5.3,-14.3 7.4,-22.3 0,-0.5 0,-1.6 0.6,-2.1 1,0 0.5,1 1.6,1.6 0,2.7 1,4.8 1,7.4 1.1,2.1 1.1,3.8 1.6,5.9 3.7,19.6 5.3,39.8 0,59.4 1.6,2.1 4.8,0.5 7.5,1 12.1,0.5 23.8,0 36,0.5 12.2,-0.5 24.4,-0.5 36.1,0 0,-15.3 -1.1,-31.2 -3.7,-46.6 -1.6,-8 -3.2,-14.8 -5.3,-22.3 -4.3,-13.8 -9.6,-27 -14.9,-39.3 -2.1,-3.6 -3.7,-6.9 -5.8,-10.6 -12.2,-22.3 -28.1,-44.5 -48.8,-59.9 -10.6,-8.5 -23.9,-13.3 -36.1,-20.2 -1.1,-3.7 -1.1,-7.4 -3.7,-9.6 -3.2,-1.5 -7.5,-1.5 -11.2,-1 -1.5,1 -3.1,1.6 -4.7,3.2 -1.7,-1.6 -2.7,-3.7 -5.3,-4.2 -4.9,-0.6 -10.7,-1.1 -13.9,2.6 -0.5,0 -1,0 -1,-0.6 -3.7,-4.2 -10.6,-3.1 -16,-3.6 -2.5,0.5 -5.2,1.6 -6.8,3.1 -6.9,-3.1 -14.3,-1.5 -21.8,1.1 -0.5,0 -1,0.5 -1,1.6 -3.2,-1.6 -5.9,-4.8 -10.1,-3.7 -3.7,1.5 -6.4,2.6 -8.5,5.8 l -4.2,-3.2 c -5.4,1.1 -9.6,3.8 -13.3,7.4 -3.2,3.8 -2.2,10.1 -3.7,14.4 l -4.8,3.1 c -3.2,2.7 -5.3,3.8 -8,5.9 -12.1,9.5 -23.8,22.3 -32.9,33.9 -4.7,5.9 -8.5,11.7 -12.1,18.1 -7,12.8 -12.3,26 -16.5,40.8 -2.1,5.4 -3.2,10.7 -4.8,16 0,1.5 -1.1,2.6 -1.1,4.2 -0.5,3.7 -1.5,6.9 -1.5,10.1 -1.1,4.2 -1.1,9 -2.1,13.8 -1.6,12.7 -1.1,24.9 -2.2,37.2 l 40.9,0.5 c 0,-1.1 -0.6,-2.7 -0.6,-4.3 -0.5,-4.7 -0.5,-9 -0.5,-13.2 1.1,-19.2 5.9,-39.3 12.8,-57.3 0.5,0 0.5,-0.5 1,-0.5 l 1.1,6.3 c 0.5,9 3.2,18.6 6.4,26.5 l 2.6,5.3 c 0.5,2.7 2.1,4.8 3.2,7.4 2.6,4.3 5.2,7.4 7.9,11.7 2.2,2.1 3.7,4.8 5.8,6.4 15.4,17 38.3,27.6 62.2,28.7 z"
   id="path9-6"
   style="fill:#000000;stroke-width:0pt;stroke-linecap:square" />
<path
   d="m 1624.2,2528.4 0.5,0 0.4,0 0.5,0 0.5,0 0.9,0 0.9,0 0.9,0 0.4,0 0.5,0 0.4,0 0.5,0 0.5,0 0.5,0 c 28.6,-2.2 48.8,-18.6 67.4,-39.4 4.7,-6.3 8.4,-11.6 12.2,-18.5 1.5,-2.6 2.6,-5.3 4.2,-8.5 3.2,-6.9 5.3,-14.3 7.4,-22.3 0,-0.5 0,-1.6 0.6,-2.1 1,0 0.5,1 1.6,1.6 0,2.7 1,4.8 1,7.4 1.1,2.1 1.1,3.8 1.6,5.9 3.7,19.6 5.3,39.8 0,59.4 1.6,2.1 4.8,0.5 7.5,1 12.1,0.5 23.8,0 36,0.5 12.2,-0.5 24.4,-0.5 36.1,0 0,-15.3 -1.1,-31.2 -3.7,-46.6 -1.6,-8 -3.2,-14.8 -5.3,-22.3 -4.3,-13.8 -9.6,-27 -14.9,-39.3 -2.1,-3.6 -3.7,-6.9 -5.8,-10.6 -12.2,-22.3 -28.1,-44.5 -48.8,-59.9 -10.6,-8.5 -23.9,-13.3 -36.1,-20.2 -1.1,-3.7 -1.1,-7.4 -3.7,-9.6 -3.2,-1.5 -7.5,-1.5 -11.2,-1 -1.5,1 -3.1,1.6 -4.7,3.2 -1.7,-1.6 -2.7,-3.7 -5.3,-4.2 -4.9,-0.6 -10.7,-1.1 -13.9,2.6 -0.5,0 -1,0 -1,-0.6 -3.7,-4.2 -10.6,-3.1 -16,-3.6 -2.5,0.5 -5.2,1.6 -6.8,3.1 -6.9,-3.1 -14.3,-1.5 -21.8,1.1 -0.5,0 -1,0.5 -1,1.6 -3.2,-1.6 -5.9,-4.8 -10.1,-3.7 -3.7,1.5 -6.4,2.6 -8.5,5.8 l -4.2,-3.2 c -5.4,1.1 -9.6,3.8 -13.3,7.4 -3.2,3.8 -2.2,10.1 -3.7,14.4 l -4.8,3.1 c -3.2,2.7 -5.3,3.8 -8,5.9 -12.1,9.5 -23.8,22.3 -32.9,33.9 -4.7,5.9 -8.5,11.7 -12.1,18.1 -7,12.8 -12.3,26 -16.5,40.8 -2.1,5.4 -3.2,10.7 -4.8,16 0,1.5 -1.1,2.6 -1.1,4.2 -0.5,3.7 -1.5,6.9 -1.5,10.1 -1.1,4.2 -1.1,9 -2.1,13.8 -1.6,12.7 -1.1,24.9 -2.2,37.2 l 40.9,0.5 c 0,-1.1 -0.6,-2.7 -0.6,-4.3 -0.5,-4.7 -0.5,-9 -0.5,-13.2 1.1,-19.2 5.9,-39.3 12.8,-57.3 0.5,0 0.5,-0.5 1,-0.5 l 1.1,6.3 c 0.5,9 3.2,18.6 6.4,26.5 l 2.6,5.3 c 0.5,2.7 2.1,4.8 3.2,7.4 2.6,4.3 5.2,7.4 7.9,11.7 2.2,2.1 3.7,4.8 5.8,6.4 15.4,17 38.3,27.6 62.2,28.7 z"
   id="path11-5"
   style="stroke-width:0.21600001;stroke-linecap:square" />
<path
   d="m 1669.8,2459.4 2.1,0 2.2,0 2.2,-0.1 1.2,0 1.1,-0.1 1.1,0 1.1,-0.1 1.2,-0.1 1.1,-0.1 1.2,-0.1 1.1,-0.1 1.2,-0.2 1.2,-0.2 c 5.9,-2.1 9,-5.8 13.8,-10.1 l 2.6,-4.2 2.7,-6.4 c 2.2,-8 0.5,-17 -2.7,-24.4 -3.6,-3.7 -7.9,-7.4 -13.2,-8.5 -11.2,-3.1 -18,-13.8 -31.3,-12.2 -0.5,0.6 -1,1.1 -1.6,1.1 -2.1,3.1 -3.2,8 -4.8,12.2 -2.1,4.8 -3.1,9.5 -5.3,14.3 -2.7,6.9 -3.2,15.4 -1.1,22.3 1.1,2.7 3.3,4.7 3.8,6.9 3.7,4.8 8,6.3 12.7,9 2.1,0.5 4.3,0.5 6.4,1.1 z"
   id="path13-6"
   style="fill:#ffffff;stroke:#ffffff;stroke-width:0pt;stroke-linecap:square" />
<path
   d="m 1669.8,2459.4 2.1,0 2.2,0 2.2,-0.1 1.2,0 1.1,-0.1 1.1,0 1.1,-0.1 1.2,-0.1 1.1,-0.1 1.2,-0.1 1.1,-0.1 1.2,-0.2 1.2,-0.2 c 5.9,-2.1 9,-5.8 13.8,-10.1 l 2.6,-4.2 2.7,-6.4 c 2.2,-8 0.5,-17 -2.7,-24.4 -3.6,-3.7 -7.9,-7.4 -13.2,-8.5 -11.2,-3.1 -18,-13.8 -31.3,-12.2 -0.5,0.6 -1,1.1 -1.6,1.1 -2.1,3.1 -3.2,8 -4.8,12.2 -2.1,4.8 -3.1,9.5 -5.3,14.3 -2.7,6.9 -3.2,15.4 -1.1,22.3 1.1,2.7 3.3,4.7 3.8,6.9 3.7,4.8 8,6.3 12.7,9 2.1,0.5 4.3,0.5 6.4,1.1 z"
   id="path15-9"
   style="stroke-width:0.21600001;stroke-linecap:square" />
<path
   d="m 1605.6,2457.8 0.4,0 0.4,0 0.4,0 0.4,0 0.5,0 0.4,0 0.2,0 0.2,0 0.2,0 0.2,0 0.2,0 0.2,-0.1 0.2,0 0.2,-0.1 0.1,0 0.2,-0.1 0.2,-0.1 0.2,-0.1 0.1,-0.1 0.2,-0.1 0.1,-0.1 0.2,-0.1 0.1,-0.2 0.1,-0.1 0.1,-0.2 0.1,-0.2 c 4.3,-6.4 9,-13.8 9,-22.3 -1.1,-12.8 -2.1,-25.5 -5.3,-37.7 -1,-3.7 -4.2,-6.9 -7.4,-7.4 -9.6,-2.1 -16.4,4.8 -23.8,8.5 -9.6,1.6 -18.6,4.3 -24,12.2 -2.6,3.7 -0.5,8 -2.1,12.2 -0.5,7.4 0,16.4 5.3,20.7 4.3,2.7 9.6,4.2 13.8,6.3 7,1.7 11.7,5.4 18,6.9 1.6,0.6 3.8,0.6 5.4,1.6 2.1,0 3.7,0 5.3,0.6 z"
   id="path17-3"
   style="fill:#ffffff;stroke:#ffffff;stroke-width:0pt;stroke-linecap:square" />
<path
   d="m 1605.6,2457.8 0.4,0 0.4,0 0.4,0 0.4,0 0.5,0 0.4,0 0.2,0 0.2,0 0.2,0 0.2,0 0.2,0 0.2,-0.1 0.2,0 0.2,-0.1 0.1,0 0.2,-0.1 0.2,-0.1 0.2,-0.1 0.1,-0.1 0.2,-0.1 0.1,-0.1 0.2,-0.1 0.1,-0.2 0.1,-0.1 0.1,-0.2 0.1,-0.2 c 4.3,-6.4 9,-13.8 9,-22.3 -1.1,-12.8 -2.1,-25.5 -5.3,-37.7 -1,-3.7 -4.2,-6.9 -7.4,-7.4 -9.6,-2.1 -16.4,4.8 -23.8,8.5 -9.6,1.6 -18.6,4.3 -24,12.2 -2.6,3.7 -0.5,8 -2.1,12.2 -0.5,7.4 0,16.4 5.3,20.7 4.3,2.7 9.6,4.2 13.8,6.3 7,1.7 11.7,5.4 18,6.9 1.6,0.6 3.8,0.6 5.4,1.6 2.1,0 3.7,0 5.3,0.6 z"
   id="path19-7"
   style="stroke-width:0.21600001;stroke-linecap:square" />
<path
   d="m 1636.8,2439.2 0.1,0 0,0 0,0 0,0 0,0 0,0 0,0 0,0 0,0 0,0 0,0 0,0 0,0 0,0 0,0 0,0 0.1,0 0,0 0,0 0,0 0.1,0 0,0 0,0 0.1,0 0,0 0,0 0.1,0 0,0 0,0 0,0 0,0 0.1,0 0,0 0,0 0,0 0,0 0,0 0,0 0,0 0,0 0,0 0,0 0,0 0,0 0,0 0,0 c 1.6,-2.6 1.1,-6.9 1.6,-10.1 1.1,-10 4.3,-20.1 4.3,-29.7 0.5,-3.2 0.5,-5.8 1,-9 2.1,-10.7 -2.1,-20.2 -4.8,-30.2 -0.5,-1.1 -0.5,-2.2 -0.5,-3.8 0,-0.5 -1.1,-1.1 -2.2,-1.6 l -1.5,6.9 c -0.5,0.5 -2.1,1.1 -2.7,0.5 -1,-1 -1.6,-1.5 -1,-2.6 0,-3.2 1,-6.4 -1.1,-9 0,0 -0.5,0 -0.5,0 -5.3,9 -8.5,21.2 -9.6,32.4 0.5,16.4 6.4,31.2 5.9,47.1 1,1.1 1,2.2 1.5,2.7 3.2,-9 -0.5,-21.7 3.8,-30.2 0.5,-0.5 1,-0.5 1.6,-1 0,0 0,0.5 0,0.5 2.1,11.1 0,24.4 2.6,36.5 0,0.6 0.5,0.6 1,0.6 l 0,0 z"
   id="path21-4"
   style="fill:#ffffff;stroke:#ffffff;stroke-width:0pt;stroke-linecap:square" />
<path
   d="m 1636.8,2439.2 0.1,0 0,0 0,0 0,0 0,0 0,0 0,0 0,0 0,0 0,0 0,0 0,0 0,0 0,0 0,0 0,0 0.1,0 0,0 0,0 0,0 0.1,0 0,0 0,0 0.1,0 0,0 0,0 0.1,0 0,0 0,0 0,0 0,0 0.1,0 0,0 0,0 0,0 0,0 0,0 0,0 0,0 0,0 0,0 0,0 0,0 0,0 0,0 0,0 c 1.6,-2.6 1.1,-6.9 1.6,-10.1 1.1,-10 4.3,-20.1 4.3,-29.7 0.5,-3.2 0.5,-5.8 1,-9 2.1,-10.7 -2.1,-20.2 -4.8,-30.2 -0.5,-1.1 -0.5,-2.2 -0.5,-3.8 0,-0.5 -1.1,-1.1 -2.2,-1.6 l -1.5,6.9 c -0.5,0.5 -2.1,1.1 -2.7,0.5 -1,-1 -1.6,-1.5 -1,-2.6 0,-3.2 1,-6.4 -1.1,-9 0,0 -0.5,0 -0.5,0 -5.3,9 -8.5,21.2 -9.6,32.4 0.5,16.4 6.4,31.2 5.9,47.1 1,1.1 1,2.2 1.5,2.7 3.2,-9 -0.5,-21.7 3.8,-30.2 0.5,-0.5 1,-0.5 1.6,-1 0,0 0,0.5 0,0.5 2.1,11.1 0,24.4 2.6,36.5 0,0.6 0.5,0.6 1,0.6 l 0,0 z"
   id="path23-5"
   style="stroke-width:0.21600001;stroke-linecap:square" />
<path
   d="m 1718.1,2430.7 0,0 0,0 0,0 0,0 0,0 0,0 0,0 0,0 0,0 0,0 0,0 0,0 0,0 0,0 0,0 0,0 0.1,0 0,0 0,0 0,0 0,0 0.1,0 0,0 0.1,0 0,0 0,0 0,0 0.1,0 0,0 0,0 0,0 0,0 0,0 0,0 0,0 0,0 0,0 0,0 0.1,0 0,0 0,0 0,0 0,0 0,0 0,0 0,0 c 0.5,-0.6 1.1,-1.1 1.1,-1.6 0,-3.1 -2.7,-5.3 -2.7,-8.5 -1.1,-4.7 -0.5,-10 -0.5,-14.8 0,0 0.5,0 1,-0.6 -0.5,-1.1 0.6,-2.6 0,-3.6 0.6,-3.3 0.6,-5.9 1.1,-8.5 0.5,-6.4 0.5,-12.3 0,-17.6 0,-0.5 0,-1 0,-1 0,-0.6 0,-0.6 -0.5,-1.1 0,-0.5 0.5,-0.5 0.5,-1.1 l -1.1,-6.9 c -2.1,-3.7 -3.2,-7.9 -7.4,-10.1 -0.5,0 -1,0 -1.6,0 -1.1,0 -1.6,1.7 -1.1,2.2 4.3,2.7 7.5,6.9 8,13.2 1.1,5.4 1.1,10.1 1.1,15.4 -1.6,14.9 -6.9,31.4 1.6,44.6 l 0,0 z"
   id="path25-2"
   style="fill:#ffffff;stroke:#ffffff;stroke-width:0pt;stroke-linecap:square" />
<path
   d="m 1718.1,2430.7 0,0 0,0 0,0 0,0 0,0 0,0 0,0 0,0 0,0 0,0 0,0 0,0 0,0 0,0 0,0 0,0 0.1,0 0,0 0,0 0,0 0,0 0.1,0 0,0 0.1,0 0,0 0,0 0,0 0.1,0 0,0 0,0 0,0 0,0 0,0 0,0 0,0 0,0 0,0 0,0 0.1,0 0,0 0,0 0,0 0,0 0,0 0,0 0,0 c 0.5,-0.6 1.1,-1.1 1.1,-1.6 0,-3.1 -2.7,-5.3 -2.7,-8.5 -1.1,-4.7 -0.5,-10 -0.5,-14.8 0,0 0.5,0 1,-0.6 -0.5,-1.1 0.6,-2.6 0,-3.6 0.6,-3.3 0.6,-5.9 1.1,-8.5 0.5,-6.4 0.5,-12.3 0,-17.6 0,-0.5 0,-1 0,-1 0,-0.6 0,-0.6 -0.5,-1.1 0,-0.5 0.5,-0.5 0.5,-1.1 l -1.1,-6.9 c -2.1,-3.7 -3.2,-7.9 -7.4,-10.1 -0.5,0 -1,0 -1.6,0 -1.1,0 -1.6,1.7 -1.1,2.2 4.3,2.7 7.5,6.9 8,13.2 1.1,5.4 1.1,10.1 1.1,15.4 -1.6,14.9 -6.9,31.4 1.6,44.6 l 0,0 z"
   id="path27-5"
   style="stroke-width:0.21600001;stroke-linecap:square" />
<path
   d="m 1537.6,2425.4 0.1,0 0,0 0.1,0 0.1,0 0,0 0.1,-0.1 0.1,0 0,0 0.1,0 0.1,0 0,-0.1 0.1,0 0.1,0 0,-0.1 0.1,0 0.1,0 0,-0.1 0.1,0 0.1,-0.1 0,0 0.1,0 0,-0.1 0.1,0 0,-0.1 0.1,0 0,-0.1 0,0 0,-0.1 0.1,0 0,-0.1 0,0 0,0 0,-0.1 0,0 c 0.5,-2.1 1.6,-3.2 2.1,-4.7 0.5,-1.1 1.6,-1.6 1.1,-3.2 l 1,-3.8 1.6,-5.8 0,-3.2 0.5,-6.3 -0.5,-1.6 -1.1,-15.4 c 1.1,-0.6 0,-1.6 0.5,-2.1 0,0 0,0 0.6,-0.5 l 0,-5.9 c 0,0 0.5,-0.5 1,-0.5 l 1.1,-6.4 1.6,-3.7 c 1.1,-1 1.6,-3.2 1.6,-5.3 0,-1.1 -0.5,-1.1 -1,-1.1 -4.3,4.8 -6.9,12.3 -8.5,20.2 0,1.6 0.5,2.7 0,4.2 0,14.4 2.6,30.3 -4.3,43.5 0,0.6 -0.5,1.6 -0.5,2.2 0.5,0 1,0.5 1.5,0.5 z"
   id="path29-4"
   style="fill:#ffffff;stroke:#ffffff;stroke-width:0pt;stroke-linecap:square" />
<path
   d="m 1537.6,2425.4 0.1,0 0,0 0.1,0 0.1,0 0,0 0.1,-0.1 0.1,0 0,0 0.1,0 0.1,0 0,-0.1 0.1,0 0.1,0 0,-0.1 0.1,0 0.1,0 0,-0.1 0.1,0 0.1,-0.1 0,0 0.1,0 0,-0.1 0.1,0 0,-0.1 0.1,0 0,-0.1 0,0 0,-0.1 0.1,0 0,-0.1 0,0 0,0 0,-0.1 0,0 c 0.5,-2.1 1.6,-3.2 2.1,-4.7 0.5,-1.1 1.6,-1.6 1.1,-3.2 l 1,-3.8 1.6,-5.8 0,-3.2 0.5,-6.3 -0.5,-1.6 -1.1,-15.4 c 1.1,-0.6 0,-1.6 0.5,-2.1 0,0 0,0 0.6,-0.5 l 0,-5.9 c 0,0 0.5,-0.5 1,-0.5 l 1.1,-6.4 1.6,-3.7 c 1.1,-1 1.6,-3.2 1.6,-5.3 0,-1.1 -0.5,-1.1 -1,-1.1 -4.3,4.8 -6.9,12.3 -8.5,20.2 0,1.6 0.5,2.7 0,4.2 0,14.4 2.6,30.3 -4.3,43.5 0,0.6 -0.5,1.6 -0.5,2.2 0.5,0 1,0.5 1.5,0.5 z"
   id="path31-7"
   style="stroke-width:0.21600001;stroke-linecap:square" />
<path
   d="m 1622,2334.7 0.2,0 0.1,0 0.2,0 0.1,-0.1 0.4,0 0.3,0 0.3,-0.1 0.4,0 0.3,-0.1 0.3,-0.1 0.2,-0.1 0.1,0 0.2,-0.1 0.1,0 0.2,-0.1 0.1,-0.1 0.2,0 0.1,-0.1 0.2,-0.1 0.1,-0.1 0.1,0 0.1,-0.1 0.2,-0.1 0.1,-0.1 0.1,-0.1 0.1,-0.1 c 0,-0.5 0,-1.1 0,-1.1 0.5,-7.4 2.1,-15.9 -0.5,-22.8 -4.3,-2.1 -9.6,0 -14.4,1.1 -0.5,0 -1,0.5 -1.6,1 -1,4.3 0.6,9.6 1.1,13.8 0.5,2.2 1,3.2 1.6,4.2 l 6.9,4.3 2.1,1.1 z"
   id="path33-4"
   style="fill:#ffffff;stroke:#ffffff;stroke-width:0pt;stroke-linecap:square" />
<path
   d="m 1622,2334.7 0.2,0 0.1,0 0.2,0 0.1,-0.1 0.4,0 0.3,0 0.3,-0.1 0.4,0 0.3,-0.1 0.3,-0.1 0.2,-0.1 0.1,0 0.2,-0.1 0.1,0 0.2,-0.1 0.1,-0.1 0.2,0 0.1,-0.1 0.2,-0.1 0.1,-0.1 0.1,0 0.1,-0.1 0.2,-0.1 0.1,-0.1 0.1,-0.1 0.1,-0.1 c 0,-0.5 0,-1.1 0,-1.1 0.5,-7.4 2.1,-15.9 -0.5,-22.8 -4.3,-2.1 -9.6,0 -14.4,1.1 -0.5,0 -1,0.5 -1.6,1 -1,4.3 0.6,9.6 1.1,13.8 0.5,2.2 1,3.2 1.6,4.2 l 6.9,4.3 2.1,1.1 z"
   id="path35-4"
   style="stroke-width:0.21600001;stroke-linecap:square" />
<path
   d="m 1641.7,2334.7 0.2,-0.1 0.3,0 0.2,-0.1 0.3,-0.1 0.2,0 0.3,-0.1 0.2,-0.1 0.2,-0.1 0.3,-0.1 0.2,-0.1 0.2,-0.1 0.3,-0.1 0.2,-0.1 0.2,-0.2 0.2,-0.1 0.2,-0.1 0.2,-0.2 0.2,-0.1 0.2,-0.2 0.2,-0.1 0.2,-0.2 0.2,-0.1 0.2,-0.2 0.1,-0.2 0.2,-0.1 0.2,-0.2 0.1,-0.2 0.1,-0.2 0.2,-0.2 0.1,-0.2 0.1,-0.2 0.1,-0.2 c 2.2,-6.3 4.8,-14.8 1.1,-20.6 -0.5,-0.6 -0.5,-1.1 -1.1,-1.6 -4.2,-2.2 -10.6,-1.1 -15.4,0.5 l 0.6,22.2 c 1.6,3.3 5.3,3.3 8.5,3.8 z"
   id="path37-3"
   style="fill:#ffffff;stroke:#ffffff;stroke-width:0pt;stroke-linecap:square" />
<path
   d="m 1641.7,2334.7 0.2,-0.1 0.3,0 0.2,-0.1 0.3,-0.1 0.2,0 0.3,-0.1 0.2,-0.1 0.2,-0.1 0.3,-0.1 0.2,-0.1 0.2,-0.1 0.3,-0.1 0.2,-0.1 0.2,-0.2 0.2,-0.1 0.2,-0.1 0.2,-0.2 0.2,-0.1 0.2,-0.2 0.2,-0.1 0.2,-0.2 0.2,-0.1 0.2,-0.2 0.1,-0.2 0.2,-0.1 0.2,-0.2 0.1,-0.2 0.1,-0.2 0.2,-0.2 0.1,-0.2 0.1,-0.2 0.1,-0.2 c 2.2,-6.3 4.8,-14.8 1.1,-20.6 -0.5,-0.6 -0.5,-1.1 -1.1,-1.6 -4.2,-2.2 -10.6,-1.1 -15.4,0.5 l 0.6,22.2 c 1.6,3.3 5.3,3.3 8.5,3.8 z"
   id="path39-0"
   style="stroke-width:0.21600001;stroke-linecap:square" />
<path
   d="m 1782.3,2330.9 0.8,-0.1 0.9,-0.1 0.8,-0.2 0.9,-0.1 0.8,-0.2 0.8,-0.2 0.8,-0.3 0.9,-0.2 0.8,-0.3 0.8,-0.3 0.8,-0.4 0.8,-0.3 0.7,-0.4 0.8,-0.4 0.8,-0.4 0.7,-0.4 0.7,-0.5 0.7,-0.5 0.7,-0.5 0.7,-0.5 0.7,-0.5 0.6,-0.6 0.6,-0.6 0.6,-0.6 0.6,-0.6 0.6,-0.7 0.5,-0.6 0.5,-0.7 0.5,-0.8 0.5,-0.7 0.4,-0.8 0.4,-0.7 c 4.3,-8.5 1.6,-19.2 -2.1,-27.1 -2.1,-4.8 -5.3,-8.5 -7.4,-12.2 0,-0.5 0,-0.5 0.5,-1.1 2.1,0.6 3.7,3.2 5.9,4.8 2.6,-1.1 4.7,-4.8 6.3,-7.4 0.6,-1.1 0.6,-2.7 1.6,-4.3 0.6,-3.2 0,-5.8 0,-9.5 -1,-8.5 -6.4,-14.9 -12.2,-19.1 -9.6,-4.8 -20.7,-7.4 -30.2,-3.2 -4.8,2.6 -9.6,6.9 -11.2,12.2 -1.6,5.8 -1.6,11.1 0,16.4 0,0.6 0,0.6 -0.5,0.6 0,0.5 -1.1,0.5 -1.6,0.5 -1.6,-2.1 -2.1,-4.8 -2.6,-7.9 l -21.8,0 -24.4,38.1 48.8,0.6 c 0.5,10.6 4.3,22.2 13.3,28.1 1.1,0.6 2.1,1.6 3.2,2.1 4.2,1.6 7.9,2.6 12.2,2.6 z"
   id="path41-7"
   style="fill:#000000;stroke-width:0pt;stroke-linecap:square" />
<path
   d="m 1782.3,2330.9 0.8,-0.1 0.9,-0.1 0.8,-0.2 0.9,-0.1 0.8,-0.2 0.8,-0.2 0.8,-0.3 0.9,-0.2 0.8,-0.3 0.8,-0.3 0.8,-0.4 0.8,-0.3 0.7,-0.4 0.8,-0.4 0.8,-0.4 0.7,-0.4 0.7,-0.5 0.7,-0.5 0.7,-0.5 0.7,-0.5 0.7,-0.5 0.6,-0.6 0.6,-0.6 0.6,-0.6 0.6,-0.6 0.6,-0.7 0.5,-0.6 0.5,-0.7 0.5,-0.8 0.5,-0.7 0.4,-0.8 0.4,-0.7 c 4.3,-8.5 1.6,-19.2 -2.1,-27.1 -2.1,-4.8 -5.3,-8.5 -7.4,-12.2 0,-0.5 0,-0.5 0.5,-1.1 2.1,0.6 3.7,3.2 5.9,4.8 2.6,-1.1 4.7,-4.8 6.3,-7.4 0.6,-1.1 0.6,-2.7 1.6,-4.3 0.6,-3.2 0,-5.8 0,-9.5 -1,-8.5 -6.4,-14.9 -12.2,-19.1 -9.6,-4.8 -20.7,-7.4 -30.2,-3.2 -4.8,2.6 -9.6,6.9 -11.2,12.2 -1.6,5.8 -1.6,11.1 0,16.4 0,0.6 0,0.6 -0.5,0.6 0,0.5 -1.1,0.5 -1.6,0.5 -1.6,-2.1 -2.1,-4.8 -2.6,-7.9 l -21.8,0 -24.4,38.1 48.8,0.6 c 0.5,10.6 4.3,22.2 13.3,28.1 1.1,0.6 2.1,1.6 3.2,2.1 4.2,1.6 7.9,2.6 12.2,2.6 z"
   id="path43-8"
   style="stroke-width:0.21600001;stroke-linecap:square" />
<path
   d="m 1659.2,2330.4 0.6,0 0.6,0 0.6,0 0.6,-0.1 0.6,-0.1 0.7,-0.1 0.6,-0.1 0.3,0 0.3,-0.1 0.3,-0.1 0.3,-0.1 0.3,-0.1 0.2,0 0.3,-0.2 0.3,-0.1 0.3,-0.1 0.2,-0.1 0.3,-0.1 0.2,-0.2 0.3,-0.1 0.2,-0.2 0.2,-0.2 0.3,-0.2 0.2,-0.1 0.2,-0.2 c 0.5,-6.4 1,-12.8 -0.5,-18 -2.7,-2.2 -6.4,-2.2 -9.6,-0.6 -2.7,1.6 -2.7,5.3 -2.7,8 0.6,4.2 -0.5,8.5 1.1,12.1 1.6,0.6 2.2,1.1 2.7,1.1 z"
   id="path45-6"
   style="fill:#ffffff;stroke:#ffffff;stroke-width:0pt;stroke-linecap:square" />
<path
   d="m 1659.2,2330.4 0.6,0 0.6,0 0.6,0 0.6,-0.1 0.6,-0.1 0.7,-0.1 0.6,-0.1 0.3,0 0.3,-0.1 0.3,-0.1 0.3,-0.1 0.3,-0.1 0.2,0 0.3,-0.2 0.3,-0.1 0.3,-0.1 0.2,-0.1 0.3,-0.1 0.2,-0.2 0.3,-0.1 0.2,-0.2 0.2,-0.2 0.3,-0.2 0.2,-0.1 0.2,-0.2 c 0.5,-6.4 1,-12.8 -0.5,-18 -2.7,-2.2 -6.4,-2.2 -9.6,-0.6 -2.7,1.6 -2.7,5.3 -2.7,8 0.6,4.2 -0.5,8.5 1.1,12.1 1.6,0.6 2.2,1.1 2.7,1.1 z"
   id="path47-8"
   style="stroke-width:0.21600001;stroke-linecap:square" />
<path
   d="m 1597.1,2329.9 0.6,-0.1 0.6,-0.1 0.6,-0.1 0.6,-0.1 0.5,-0.2 0.6,-0.1 0.3,-0.1 0.2,-0.1 0.3,-0.1 0.3,-0.1 0.2,-0.1 0.3,-0.2 0.2,-0.1 0.3,-0.1 0.2,-0.2 0.2,-0.2 0.2,-0.1 0.3,-0.2 0.2,-0.2 0.2,-0.2 0.2,-0.2 0.2,-0.3 0.1,-0.2 0.2,-0.3 0.2,-0.2 0.1,-0.3 c 1.1,-4.3 0,-9.6 -1,-13.8 -0.6,-0.6 -1.1,-1.6 -1.6,-2.1 -3.2,-2.2 -6.9,0 -9.5,1 -3.8,4.2 -2.2,10.1 -1.6,14.3 0,1.7 1,2.2 1.6,3.2 l 4.2,1.6 z"
   id="path49-8"
   style="fill:#ffffff;stroke:#ffffff;stroke-width:0pt;stroke-linecap:square" />
<path
   d="m 1597.1,2329.9 0.6,-0.1 0.6,-0.1 0.6,-0.1 0.6,-0.1 0.5,-0.2 0.6,-0.1 0.3,-0.1 0.2,-0.1 0.3,-0.1 0.3,-0.1 0.2,-0.1 0.3,-0.2 0.2,-0.1 0.3,-0.1 0.2,-0.2 0.2,-0.2 0.2,-0.1 0.3,-0.2 0.2,-0.2 0.2,-0.2 0.2,-0.2 0.2,-0.3 0.1,-0.2 0.2,-0.3 0.2,-0.2 0.1,-0.3 c 1.1,-4.3 0,-9.6 -1,-13.8 -0.6,-0.6 -1.1,-1.6 -1.6,-2.1 -3.2,-2.2 -6.9,0 -9.5,1 -3.8,4.2 -2.2,10.1 -1.6,14.3 0,1.7 1,2.2 1.6,3.2 l 4.2,1.6 z"
   id="path51-4"
   style="stroke-width:0.21600001;stroke-linecap:square" />
<path
   d="m 1684.7,2329.9 0.1,-0.1 0.2,-0.1 0.2,-0.1 0.1,-0.2 0.2,-0.1 0.1,-0.2 0.2,-0.2 0.1,-0.1 0.1,-0.2 0.1,-0.2 0.1,-0.2 0.1,-0.2 0.1,-0.2 0.1,-0.2 0,-0.3 0.1,-0.2 0.2,-0.4 0.1,-0.5 0.1,-0.5 0.2,-0.4 0.1,-0.5 0.1,-0.2 0.1,-0.2 0,-0.3 0.1,-0.2 0.1,-0.2 0.1,-0.2 c 0,-4.7 0.5,-9.5 -1.6,-13.2 -2.6,-1.6 -6.9,-1.1 -10,0 -1.1,1 -1.6,1.6 -1.6,2.6 -1.1,3.8 -1.1,8 0,12.2 2.1,2.7 6.3,3.7 10.1,4.8 z"
   id="path53-3"
   style="fill:#ffffff;stroke:#ffffff;stroke-width:0pt;stroke-linecap:square" />
<path
   d="m 1684.7,2329.9 0.1,-0.1 0.2,-0.1 0.2,-0.1 0.1,-0.2 0.2,-0.1 0.1,-0.2 0.2,-0.2 0.1,-0.1 0.1,-0.2 0.1,-0.2 0.1,-0.2 0.1,-0.2 0.1,-0.2 0.1,-0.2 0,-0.3 0.1,-0.2 0.2,-0.4 0.1,-0.5 0.1,-0.5 0.2,-0.4 0.1,-0.5 0.1,-0.2 0.1,-0.2 0,-0.3 0.1,-0.2 0.1,-0.2 0.1,-0.2 c 0,-4.7 0.5,-9.5 -1.6,-13.2 -2.6,-1.6 -6.9,-1.1 -10,0 -1.1,1 -1.6,1.6 -1.6,2.6 -1.1,3.8 -1.1,8 0,12.2 2.1,2.7 6.3,3.7 10.1,4.8 z"
   id="path55-1"
   style="stroke-width:0.21600001;stroke-linecap:square" />
<path
   d="m 1574.8,2329.3 1,0 1,0 1,0 0.5,0 0.5,0 0.6,0 0.5,-0.1 0.5,0 0.6,-0.1 0.5,0 0.6,-0.1 0.6,-0.1 0.6,-0.1 c 1.1,-0.5 1.6,-0.5 2.1,-1 1.6,-4.8 0.5,-10.6 -1,-15.4 -0.5,-0.5 -1.1,-0.5 -1.1,-1.1 -3.2,0.6 -6.4,2.1 -8.5,3.7 -1.6,3.8 -3.2,8 -2.1,12.3 0,0.5 0.5,1 0.5,1.5 l 1.6,0.5 z"
   id="path57-4"
   style="fill:#ffffff;stroke:#ffffff;stroke-width:0pt;stroke-linecap:square" />
<path
   d="m 1574.8,2329.3 1,0 1,0 1,0 0.5,0 0.5,0 0.6,0 0.5,-0.1 0.5,0 0.6,-0.1 0.5,0 0.6,-0.1 0.6,-0.1 0.6,-0.1 c 1.1,-0.5 1.6,-0.5 2.1,-1 1.6,-4.8 0.5,-10.6 -1,-15.4 -0.5,-0.5 -1.1,-0.5 -1.1,-1.1 -3.2,0.6 -6.4,2.1 -8.5,3.7 -1.6,3.8 -3.2,8 -2.1,12.3 0,0.5 0.5,1 0.5,1.5 l 1.6,0.5 z"
   id="path59-9"
   style="stroke-width:0.21600001;stroke-linecap:square" />
<path
   d="m 1525.5,2325.1 1.3,0 1.2,-0.1 0.7,-0.1 0.6,0 0.7,-0.1 0.6,-0.1 0.6,-0.1 0.6,-0.2 0.7,-0.1 0.6,-0.2 0.6,-0.1 0.6,-0.2 0.6,-0.2 0.5,-0.3 0.6,-0.2 0.6,-0.3 0.5,-0.3 0.5,-0.3 0.6,-0.3 0.5,-0.3 0.5,-0.4 0.5,-0.3 0.4,-0.4 0.5,-0.4 0.4,-0.5 0.4,-0.4 0.4,-0.5 0.4,-0.5 0.4,-0.5 0.4,-0.5 c 3.7,-4.8 5.8,-11.7 4.2,-18.1 0,-1.6 -0.5,-2.6 -0.5,-3.7 l 49.3,1.1 c 0.5,0 0.5,-0.6 0.5,-1.1 l -22.7,-37.1 -29.3,0 -5.8,6.9 c -0.5,0 -1.6,-1.1 -1.6,-1.6 3.8,-4.8 6.4,-11.7 4.3,-19.1 -2.7,-6.9 -8,-13.8 -14.3,-16.5 -8,-2.6 -16,2.1 -21.3,6.9 -7.4,6.9 -12.2,14.9 -12.7,25.5 0,2.1 0.5,3.2 1.6,5.3 0.5,3.2 2.1,4.7 3.7,7.4 2.2,2.7 4.2,4.8 6.4,6.4 2.1,1.6 4.2,2.1 5.8,4.8 l 0,1.1 c -1.6,1.5 -3.2,0 -4.2,-0.6 -1.1,-1 -1.6,-1 -2.2,-1.6 -3.6,2.7 -5.3,6.4 -6.3,11.2 -1.1,7.4 1,15.4 5.8,20.1 2.1,2.2 4.3,4.3 6.4,5.3 4.8,2.7 10.6,4.8 15.4,5.3 z"
   id="path61-2"
   style="fill:#000000;stroke-width:0pt;stroke-linecap:square" />
<path
   d="m 1525.5,2325.1 1.3,0 1.2,-0.1 0.7,-0.1 0.6,0 0.7,-0.1 0.6,-0.1 0.6,-0.1 0.6,-0.2 0.7,-0.1 0.6,-0.2 0.6,-0.1 0.6,-0.2 0.6,-0.2 0.5,-0.3 0.6,-0.2 0.6,-0.3 0.5,-0.3 0.5,-0.3 0.6,-0.3 0.5,-0.3 0.5,-0.4 0.5,-0.3 0.4,-0.4 0.5,-0.4 0.4,-0.5 0.4,-0.4 0.4,-0.5 0.4,-0.5 0.4,-0.5 0.4,-0.5 c 3.7,-4.8 5.8,-11.7 4.2,-18.1 0,-1.6 -0.5,-2.6 -0.5,-3.7 l 49.3,1.1 c 0.5,0 0.5,-0.6 0.5,-1.1 l -22.7,-37.1 -29.3,0 -5.8,6.9 c -0.5,0 -1.6,-1.1 -1.6,-1.6 3.8,-4.8 6.4,-11.7 4.3,-19.1 -2.7,-6.9 -8,-13.8 -14.3,-16.5 -8,-2.6 -16,2.1 -21.3,6.9 -7.4,6.9 -12.2,14.9 -12.7,25.5 0,2.1 0.5,3.2 1.6,5.3 0.5,3.2 2.1,4.7 3.7,7.4 2.2,2.7 4.2,4.8 6.4,6.4 2.1,1.6 4.2,2.1 5.8,4.8 l 0,1.1 c -1.6,1.5 -3.2,0 -4.2,-0.6 -1.1,-1 -1.6,-1 -2.2,-1.6 -3.6,2.7 -5.3,6.4 -6.3,11.2 -1.1,7.4 1,15.4 5.8,20.1 2.1,2.2 4.3,4.3 6.4,5.3 4.8,2.7 10.6,4.8 15.4,5.3 z"
   id="path63-0"
   style="stroke-width:0.21600001;stroke-linecap:square" />
<path
   d="m 1678.8,2297 7.4,0 19.6,-29.7 c 7.5,-1.6 12.3,-5.9 17,-11.7 4.3,-6.3 5.3,-15.4 2.7,-22.8 -4.3,-4.8 -8.5,-8.5 -14.3,-8.5 -4.8,1.6 -8,3.2 -10.1,6.9 0,2.7 3.7,3.7 3.1,7.4 0,0 0,0.6 0,0.6 0,0 -0.5,0.5 -0.5,0.5 -4.7,-6.3 -12.7,-11.2 -21.7,-11.2 -5.3,1.1 -10.7,3.2 -13.3,7.5 -3.2,3.7 -3.7,9 -2.1,13.3 1.6,5.2 5.3,9.5 9.6,12.7 0,1 -1.1,1 -1.6,1.6 l -4.8,-2.2 -19.1,34.5 c 0,1.1 0.5,0.6 1.1,1.1 9.5,0 18,0 27,0 z"
   id="path65-6"
   style="fill:#000000;stroke-width:0pt;stroke-linecap:square" />
<path
   d="m 1678.8,2297 7.4,0 19.6,-29.7 c 7.5,-1.6 12.3,-5.9 17,-11.7 4.3,-6.3 5.3,-15.4 2.7,-22.8 -4.3,-4.8 -8.5,-8.5 -14.3,-8.5 -4.8,1.6 -8,3.2 -10.1,6.9 0,2.7 3.7,3.7 3.1,7.4 0,0 0,0.6 0,0.6 0,0 -0.5,0.5 -0.5,0.5 -4.7,-6.3 -12.7,-11.2 -21.7,-11.2 -5.3,1.1 -10.7,3.2 -13.3,7.5 -3.2,3.7 -3.7,9 -2.1,13.3 1.6,5.2 5.3,9.5 9.6,12.7 0,1 -1.1,1 -1.6,1.6 l -4.8,-2.2 -19.1,34.5 c 0,1.1 0.5,0.6 1.1,1.1 9.5,0 18,0 27,0 z"
   id="path67-8"
   style="stroke-width:0.21600001;stroke-linecap:square" />
<path
   d="m 1624.7,2296.5 21.7,0 c 1.1,0 0,-1.1 -0.5,-1.6 -5.3,-9 -10.1,-17 -14.9,-25.5 -2.1,-3.7 -4.7,-7.4 -6.8,-11.1 0,0 0,0 0.5,-0.5 2.1,1 4.2,0 5.8,-1.7 3.2,-3.7 2.7,-9.5 1.6,-14.3 -2.1,-6.3 -8.5,-10.6 -14.3,-12.7 -3.7,-1.1 -8,-1.6 -10.6,1 -2.2,3.3 0,6.9 -1.6,9.6 -0.6,0.5 -1.1,0.5 -1.6,0.5 -0.6,0 -1.1,-1 -1.6,-1.6 1.6,-4.2 -1.1,-6.9 -4.3,-9.5 -3.2,-2.6 -7.4,-5.3 -12.2,-4.8 -3.1,1.1 -5.3,3.7 -7.4,5.8 -2.1,3.8 -4.2,9.6 -2.6,14.9 0.5,5.9 4.2,10.6 9,13.8 4.8,3.7 10.6,3.7 15.9,3.2 1.1,0 0.5,0.5 0.5,1.6 l -5.3,2.1 19.1,30.8 9.6,0 z"
   id="path69-9"
   style="fill:#000000;stroke-width:0pt;stroke-linecap:square" />
<path
   d="m 1624.7,2296.5 21.7,0 c 1.1,0 0,-1.1 -0.5,-1.6 -5.3,-9 -10.1,-17 -14.9,-25.5 -2.1,-3.7 -4.7,-7.4 -6.8,-11.1 0,0 0,0 0.5,-0.5 2.1,1 4.2,0 5.8,-1.7 3.2,-3.7 2.7,-9.5 1.6,-14.3 -2.1,-6.3 -8.5,-10.6 -14.3,-12.7 -3.7,-1.1 -8,-1.6 -10.6,1 -2.2,3.3 0,6.9 -1.6,9.6 -0.6,0.5 -1.1,0.5 -1.6,0.5 -0.6,0 -1.1,-1 -1.6,-1.6 1.6,-4.2 -1.1,-6.9 -4.3,-9.5 -3.2,-2.6 -7.4,-5.3 -12.2,-4.8 -3.1,1.1 -5.3,3.7 -7.4,5.8 -2.1,3.8 -4.2,9.6 -2.6,14.9 0.5,5.9 4.2,10.6 9,13.8 4.8,3.7 10.6,3.7 15.9,3.2 1.1,0 0.5,0.5 0.5,1.6 l -5.3,2.1 19.1,30.8 9.6,0 z"
   id="path71-2"
   style="stroke-width:0.21600001;stroke-linecap:square" />
</g>    </g>
  </g>
</svg>
