<?xml version="1.0" encoding="UTF-8" standalone="no"?>
<!-- Created with Inkscape (http://www.inkscape.org/) -->

<svg
   xmlns:dc="http://purl.org/dc/elements/1.1/"
   xmlns:cc="http://creativecommons.org/ns#"
   xmlns:rdf="http://www.w3.org/1999/02/22-rdf-syntax-ns#"
   xmlns:svg="http://www.w3.org/2000/svg"
   xmlns="http://www.w3.org/2000/svg"
   xmlns:sodipodi="http://sodipodi.sourceforge.net/DTD/sodipodi-0.dtd"
   xmlns:inkscape="http://www.inkscape.org/namespaces/inkscape"
   width="100"
   height="50"
   id="svg2"
   version="1.1"
   inkscape:version="0.47 r22583"
   sodipodi:docname="50-50.svg">
  <defs
     id="defs4">
    <inkscape:perspective
       sodipodi:type="inkscape:persp3d"
       inkscape:vp_x="0 : 526.18109 : 1"
       inkscape:vp_y="0 : 1000 : 0"
       inkscape:vp_z="744.09448 : 526.18109 : 1"
       inkscape:persp3d-origin="372.04724 : 350.78739 : 1"
       id="perspective10" />
    <inkscape:perspective
       id="perspective3607"
       inkscape:persp3d-origin="0.5 : 0.33333333 : 1"
       inkscape:vp_z="1 : 0.5 : 1"
       inkscape:vp_y="0 : 1000 : 0"
       inkscape:vp_x="0 : 0.5 : 1"
       sodipodi:type="inkscape:persp3d" />
  </defs>
  <sodipodi:namedview
     id="base"
     pagecolor="#313059"
     bordercolor="#666666"
     borderopacity="1.0"
     inkscape:pageopacity="1"
     inkscape:pageshadow="2"
     inkscape:zoom="1"
     inkscape:cx="213.66897"
     inkscape:cy="7.5591424"
     inkscape:document-units="px"
     inkscape:current-layer="layer1"
     showgrid="true"
     inkscape:window-width="1436"
     inkscape:window-height="877"
     inkscape:window-x="0"
     inkscape:window-y="19"
     inkscape:window-maximized="0">
    <inkscape:grid
       type="xygrid"
       id="grid2816"
       empspacing="5"
       visible="true"
       enabled="true"
       snapvisiblegridlinesonly="true" />
  </sodipodi:namedview>
  <metadata
     id="metadata7">
    <rdf:RDF>
      <cc:Work
         rdf:about="">
        <dc:format>image/svg+xml</dc:format>
        <dc:type
           rdf:resource="http://purl.org/dc/dcmitype/StillImage" />
        <dc:title />
      </cc:Work>
    </rdf:RDF>
  </metadata>
  <g
     inkscape:label="Layer 1"
     inkscape:groupmode="layer"
     id="layer1"
     transform="translate(0,-1002.3622)">
    <rect
       style="fill:#ffffff;fill-opacity:0;fill-rule:evenodd;stroke:#ffffff;stroke-opacity:1;stroke-linejoin:round;stroke-width:2;stroke-miterlimit:4;stroke-dasharray:none;stroke-linecap:butt"
       id="rect2818"
       width="100"
       height="50"
       x="0"
       y="0"
       transform="translate(0,1002.3622)" />
    <path
       style="fill:#ffffff;stroke:#ffffff;stroke-width:4;stroke-linecap:round;stroke-linejoin:bevel;stroke-opacity:1;stroke-miterlimit:4;stroke-dasharray:none;fill-opacity:1"
       d="m 70,1007.3622 -40,40 0,0"
       id="path3593" />
    <text
       xml:space="preserve"
       style="font-size:36px;font-style:normal;font-weight:bold;fill:#ffffff;fill-opacity:1;stroke:none;font-family:Bitstream Vera Sans;-inkscape-font-specification:Bitstream Vera Sans Bold"
       x="0.12626906"
       y="1029.2257"
       id="text3595"><tspan
         sodipodi:role="line"
         id="tspan3597"
         x="0.12626906"
         y="1029.2257"
         style="font-size:34px;fill:#ffffff;fill-opacity:1">50</tspan></text>
    <path
       style="font-size:36px;font-style:normal;font-weight:bold;fill:#ffffff;fill-opacity:1;stroke:none;font-family:Bitstream Vera Sans;-inkscape-font-specification:Bitstream Vera Sans Bold"
       d="m 87.917672,1024.8672 c -3.264983,0 -5.760423,1.1393 -7.53125,3.375 -1.770836,2.2246 -2.656252,5.3828 -2.65625,9.5 -2e-6,4.1061 0.885414,7.2956 2.65625,9.5313 1.770827,2.2246 4.266267,3.3125 7.53125,3.3125 3.253891,0 5.760399,-1.0879 7.53125,-3.3125 1.770812,-2.2357 2.656228,-5.4252 2.65625,-9.5313 -2.2e-5,-4.1172 -0.885438,-7.2754 -2.65625,-9.5 -1.770851,-2.2357 -4.277359,-3.375 -7.53125,-3.375 z m -31.875,0.4688 0,13.9375 c 1.195308,-0.4981 2.33463,-0.8614 3.375,-1.0938 1.040357,-0.2435 2.018871,-0.375 2.9375,-0.375 1.549468,0 2.770821,0.3724 3.65625,1.125 0.89647,0.7526 1.343735,1.7878 1.34375,3.0938 -1.5e-5,1.2949 -0.44728,2.33 -1.34375,3.0937 -0.885429,0.7526 -2.106782,1.125 -3.65625,1.125 -1.073577,0 -2.22006,-0.1751 -3.4375,-0.5625 -1.206385,-0.3874 -2.493494,-0.9753 -3.84375,-1.75 l 0,5.0313 c 1.361324,0.5533 2.721349,0.9531 4.09375,1.2187 1.383455,0.2767 2.781892,0.4063 4.1875,0.4063 3.253892,0 5.798811,-0.7338 7.625,-2.25 1.837219,-1.5163 2.749979,-3.6342 2.75,-6.3125 -2.1e-5,-2.7006 -0.848979,-4.8073 -2.53125,-6.3125 -1.682309,-1.5163 -4.00978,-2.25 -7.03125,-2.25 -0.531261,0 -1.064464,0.016 -1.5625,0.094 -0.486989,0.066 -0.98178,0.1797 -1.46875,0.3125 l 0,-3.8437 10.8125,0 0,-4.6875 -15.90625,0 z m 31.875,3.9062 c 1.372383,0 2.361965,0.6335 2.9375,1.9063 0.586573,1.2617 0.874984,3.4635 0.875,6.5625 -1.6e-5,3.1321 -0.288427,5.3411 -0.875,6.625 -0.586603,1.2838 -1.576185,1.9062 -2.9375,1.9062 -1.372406,0 -2.350921,-0.6224 -2.9375,-1.9062 -0.586597,-1.2839 -0.875008,-3.4929 -0.875,-6.625 -8e-6,-3.099 0.288403,-5.3008 0.875,-6.5625 0.586579,-1.2728 1.565094,-1.9063 2.9375,-1.9063 z"
       id="text3595-7" />
  </g>
</svg>
